<?xml version="1.0" encoding="UTF-8"?>
<svg width="88px" height="59px" viewBox="0 0 88 59" version="1.1" xmlns="http://www.w3.org/2000/svg" xmlns:xlink="http://www.w3.org/1999/xlink">
    <!-- Generator: Sketch 61.2 (89653) - https://sketch.com -->
    <title>menu - red</title>
    <desc>Created with Sketch.</desc>
    <g id="Home-Page" stroke="none" stroke-width="1" fill="none" fill-rule="evenodd">
        <g id="Artboard" transform="translate(-664.000000, -251.000000)" fill="#F05657" fill-rule="nonzero">
            <path d="M745.715,251 C744.143,251 743.619,251 743.619,251 L672.381,251 C672.381,251 671.855,251 670.286,251 C666.813,251 664,253.813 664,257.285 C664,260.758 666.813,263.571 670.286,263.571 C671.855,263.571 672.381,263.571 672.381,263.571 L743.619,263.571 C743.619,263.571 744.142,263.571 745.715,263.571 C749.185,263.571 752,260.758 752,257.285 C752,253.813 749.185,251 745.715,251 Z M705.905,297.095 L668.19,297.095 C665.876,297.095 664,298.97 664,301.285 C664,303.601 665.876,305.475 668.19,305.475 L705.904,305.475 C708.22,305.475 710.095,303.601 710.095,301.285 C710.096,298.97 708.221,297.095 705.905,297.095 Z M668.19,284.523 L714.286,284.523 C716.601,284.523 718.476,282.649 718.476,280.333 C718.476,278.019 716.601,276.143 714.286,276.143 L668.19,276.143 C665.876,276.143 664,278.019 664,280.333 C664,282.649 665.876,284.523 668.19,284.523 Z M722.667,292.904 C718.038,292.904 714.286,296.657 714.286,301.285 C714.286,305.914 718.038,309.666 722.667,309.666 C727.295,309.666 731.048,305.914 731.048,301.285 C731.048,296.657 727.295,292.904 722.667,292.904 Z" id="menu---red" transform="translate(708.000000, 280.333000) scale(-1, 1) translate(-708.000000, -280.333000) "></path>
        </g>
    </g>
</svg>