<?xml version="1.0" encoding="UTF-8"?>
<svg width="88px" height="59px" viewBox="0 0 88 59" version="1.1" xmlns="http://www.w3.org/2000/svg" xmlns:xlink="http://www.w3.org/1999/xlink">
    <!-- Generator: Sketch 61.2 (89653) - https://sketch.com -->
    <title>menu - white</title>
    <desc>Created with Sketch.</desc>
    <g id="Home-Page" stroke="none" stroke-width="1" fill="none" fill-rule="evenodd">
        <g id="Artboard" transform="translate(-478.000000, -249.000000)" fill="#FFFFFF" fill-rule="nonzero">
            <path d="M559.715,249 C558.143,249 557.619,249 557.619,249 L486.381,249 C486.381,249 485.855,249 484.286,249 C480.813,249 478,251.813 478,255.285 C478,258.758 480.813,261.571 484.286,261.571 C485.855,261.571 486.381,261.571 486.381,261.571 L557.619,261.571 C557.619,261.571 558.142,261.571 559.715,261.571 C563.185,261.571 566,258.758 566,255.285 C566,251.813 563.185,249 559.715,249 Z M519.905,295.095 L482.19,295.095 C479.876,295.095 478,296.97 478,299.285 C478,301.601 479.876,303.475 482.19,303.475 L519.904,303.475 C522.22,303.475 524.095,301.601 524.095,299.285 C524.096,296.97 522.221,295.095 519.905,295.095 Z M482.19,282.523 L528.286,282.523 C530.601,282.523 532.476,280.649 532.476,278.333 C532.476,276.019 530.601,274.143 528.286,274.143 L482.19,274.143 C479.876,274.143 478,276.019 478,278.333 C478,280.649 479.876,282.523 482.19,282.523 Z M536.667,290.904 C532.038,290.904 528.286,294.657 528.286,299.285 C528.286,303.914 532.038,307.666 536.667,307.666 C541.295,307.666 545.048,303.914 545.048,299.285 C545.048,294.657 541.295,290.904 536.667,290.904 Z" id="menu---white" transform="translate(522.000000, 278.333000) scale(-1, 1) translate(-522.000000, -278.333000) "></path>
        </g>
    </g>
</svg>