<?xml version="1.0" encoding="UTF-8"?>
<svg width="68px" height="70px" viewBox="0 0 68 70" version="1.1" xmlns="http://www.w3.org/2000/svg" xmlns:xlink="http://www.w3.org/1999/xlink">
    <!-- Generator: Sketch 61.2 (89653) - https://sketch.com -->
    <title>Group 6</title>
    <desc>Created with Sketch.</desc>
    <defs>
        <circle id="path-1" cx="32" cy="32" r="32"></circle>
        <filter x="-3.9%" y="-3.9%" width="110.9%" height="114.1%" filterUnits="objectBoundingBox" id="filter-2">
            <feMorphology radius="0.5" operator="dilate" in="SourceAlpha" result="shadowSpreadOuter1"></feMorphology>
            <feOffset dx="2" dy="4" in="shadowSpreadOuter1" result="shadowOffsetOuter1"></feOffset>
            <feComposite in="shadowOffsetOuter1" in2="SourceAlpha" operator="out" result="shadowOffsetOuter1"></feComposite>
            <feColorMatrix values="0 0 0 0 1   0 0 0 0 1   0 0 0 0 1  0 0 0 0.7 0" type="matrix" in="shadowOffsetOuter1"></feColorMatrix>
        </filter>
    </defs>
    <g id="Home-Page" stroke="none" stroke-width="1" fill="none" fill-rule="evenodd">
        <g id="Ladybug-Podcast-Home-Page-Copy" transform="translate(-378.000000, -430.000000)">
            <g id="Group-6" transform="translate(379.000000, 431.000000)">
                <g id="play-button">
                    <g id="Oval">
                        <use fill="black" fill-opacity="1" filter="url(#filter-2)" xlink:href="#path-1"></use>
                        <use stroke="#F05657" stroke-width="1" fill="#FFFFFF" fill-rule="evenodd" xlink:href="#path-1"></use>
                    </g>
                </g>
                <g id="noun_pause_2770163" transform="translate(23.000000, 21.000000)" fill="#ED626B">
                    <path d="M7.10658447,23 L0.766810728,23 C0.700394051,22.9903341 0.632769798,22.9903341 0.568768273,22.9734188 C0.306724291,22.903341 0.0941909241,22.6870666 0.0265666709,22.4309204 C0.00845303165,22.3668838 0.00845303165,22.2992225 0,22.2327695 L0,0.767230511 C0.0181136393,0.634324438 0.0362272785,0.499001891 0.102643956,0.384219374 C0.204080336,0.209025005 0.376763696,0.0785354066 0.568768273,0.0265812145 C0.632769798,0.0096658962 0.700394051,0.0096658962 0.766810728,0 L7.10658447,0 C7.17300114,0.0096658962 7.23821025,0.0181235554 7.30462692,0.0265812145 C7.42900725,0.0785354066 7.55459514,0.131697836 7.64878607,0.224732087 C7.74418457,0.320182812 7.81180882,0.43859004 7.84682852,0.569079639 C7.86373459,0.633116201 7.86373459,0.700777474 7.8733952,0.767230511 L7.8733952,22.2327695 C7.84682852,22.4333368 7.7876573,22.6351124 7.64878607,22.7752679 C7.55338757,22.8695104 7.43504513,22.9383799 7.30462692,22.9734188 C7.2406254,22.9903341 7.17300114,22.9903341 7.10658447,23 Z M18.2331893,23 L11.8934155,23 C11.7605822,22.9818764 11.6253337,22.9637529 11.510614,22.8972999 C11.3343079,22.7958079 11.2050972,22.62303 11.1531715,22.4309204 C11.1362654,22.3668838 11.1362654,22.2992225 11.1266048,22.2327695 L11.1266048,0.767230511 C11.1531715,0.566663165 11.2123427,0.364887581 11.3512139,0.224732087 C11.4466124,0.130489599 11.5649549,0.0616200883 11.6953731,0.0265812145 C11.7593746,0.0096658962 11.8269989,0.0096658962 11.8934155,0 L18.2331893,0 C18.2996059,0.0096658962 18.3660226,0.0181235554 18.4312317,0.0265812145 C18.4928181,0.0519541921 18.5592348,0.0700777474 18.6159908,0.102700147 C18.7922969,0.204192057 18.9227151,0.376969952 18.9734333,0.569079639 C18.991547,0.633116201 18.991547,0.700777474 19,0.767230511 L19,22.2327695 C18.9734333,22.4333368 18.9142621,22.6351124 18.7753909,22.7752679 C18.6799924,22.8695104 18.5616499,22.9383799 18.4312317,22.9734188 C18.3672302,22.9903341 18.2996059,22.9903341 18.2331893,23 L18.2331893,23 Z" id="Shape"></path>
                </g>
            </g>
        </g>
    </g>
</svg>