<svg width="24" height="24" viewBox="0 0 24 24" fill="none" xmlns="http://www.w3.org/2000/svg">
<g id="volume_off_24px">
<path id="icon/av/volume_off_24px" fill-rule="evenodd" clip-rule="evenodd" d="M4.33997 2.935L2.92999 4.345L7.28998 8.70499L7 9.005H3V15.005H7L12 20.005V13.415L16.18 17.595C15.53 18.085 14.8 18.475 14 18.705V20.765C15.34 20.465 16.57 19.845 17.61 19.015L19.66 21.065L21.07 19.655L4.33997 2.935ZM10 15.175L7.83002 13.005H5V11.005H7.83002L8.71002 10.125L10 11.415V15.175ZM18.59 14.345C18.85 13.615 19 12.825 19 12.005C19 8.835 16.89 6.155 14 5.295V3.235C18.01 4.145 21 7.725 21 12.005C21 13.395 20.68 14.705 20.12 15.875L18.59 14.345ZM12 4.005L10.12 5.88499L12 7.765V4.005ZM14 7.975C15.48 8.715 16.5 10.235 16.5 12.005C16.5 12.085 16.49 12.165 16.48 12.245L14 9.765V7.975Z" fill="white"/>
</g>
</svg>
