<?xml version="1.0" encoding="UTF-8"?>
<svg width="48px" height="48px" viewBox="0 0 48 48" version="1.1" xmlns="http://www.w3.org/2000/svg" xmlns:xlink="http://www.w3.org/1999/xlink">
    <!-- Generator: Sketch 61.2 (89653) - https://sketch.com -->
    <title>google</title>
    <desc>Created with Sketch.</desc>
    <g id="Home-Page" stroke="none" stroke-width="1" fill="none" fill-rule="evenodd">
        <g id="Ladybug-Podcast-Home-Page-Copy" transform="translate(-463.000000, -1517.000000)">
            <g id="Group-12" transform="translate(335.000000, 1517.000000)">
                <g id="google" transform="translate(128.000000, 0.000000)">
                    <circle id="Oval-Copy-5" fill="#FFE8E8" cx="24" cy="24" r="24"></circle>
                    <path d="M30.2529873,23.8157843 L18.2962063,11.7110764 L33.5090025,20.5284235 L30.2529873,23.8157843 L30.2529873,23.8157843 Z M15.1756328,11 C14.4713366,11.3719476 14,12.0502051 14,12.9308459 L14,37.0691541 C14,37.9497949 14.4713366,38.6280524 15.1756328,39 L29.0773546,24.9972651 L15.1756328,11 Z M38.2115335,23.3399101 L35.0205303,21.4747021 L31.4611261,25.0027349 L35.0205303,28.5307677 L38.2765454,26.6655597 C39.2517247,25.8833757 39.2517247,24.1220942 38.2115335,23.3399101 L38.2115335,23.3399101 Z M18.2962063,38.2943934 L33.5090025,29.4770463 L30.2529873,26.1896855 L18.2962063,38.2943934 Z" id="Shape" fill="#EF5757" fill-rule="nonzero"></path>
                </g>
            </g>
        </g>
    </g>
</svg>