<?xml version="1.0" encoding="UTF-8"?>
<svg width="48px" height="48px" viewBox="0 0 48 48" version="1.1" xmlns="http://www.w3.org/2000/svg" xmlns:xlink="http://www.w3.org/1999/xlink">
    <!-- Generator: Sketch 61.2 (89653) - https://sketch.com -->
    <title>itunes</title>
    <desc>Created with Sketch.</desc>
    <g id="Home-Page" stroke="none" stroke-width="1" fill="none" fill-rule="evenodd">
        <g id="Ladybug-Podcast-Home-Page-Copy" transform="translate(-399.000000, -1517.000000)">
            <g id="Group-12" transform="translate(335.000000, 1517.000000)">
                <g id="itunes" transform="translate(64.000000, 0.000000)">
                    <circle id="Oval-Copy-4" fill="#FFE8E8" cx="24" cy="24" r="24"></circle>
                    <g id="Group-5" transform="translate(8.754342, 8.754342)">
                        <circle id="Oval" stroke="#EF5757" stroke-width="1.41163496" cx="15.2456576" cy="15.2456576" r="14.5398401"></circle>
                        <path d="M21.6948127,20.9002639 C21.4366852,22.0053724 20.5977707,22.6264918 19.472496,22.8362204 C18.4843515,23.0177163 17.66157,23.062082 16.8710544,22.4248297 C15.9071094,21.6141479 15.8950096,20.271078 16.7621568,19.424097 C17.4478081,18.7707117 18.4117531,18.6376147 19.8596873,18.3835204 C20.1016818,18.3391548 20.3114105,18.2826894 20.4888731,18.0850605 C20.7470007,17.794667 20.6663358,17.9196975 20.6663358,11.5028083 C20.6663358,11.0510851 20.4445075,10.9260546 19.9806845,11.0067194 C19.6499586,11.0631848 12.4909528,12.4022214 12.4909528,12.4022214 C12.079562,12.4909528 11.9504982,12.6119501 11.9504982,13.075773 C11.9504982,22.5417937 11.9948639,22.1062035 11.8496672,22.7353893 C11.680271,23.4694395 11.2285478,24.0219938 10.6316279,24.3285202 C9.95404309,24.7036118 8.7279373,24.8689748 8.07455197,24.7479775 C6.33219111,24.4212848 5.71913821,22.4086967 6.90087833,21.2551893 C7.5865296,20.6018039 8.55047461,20.4687069 9.99840876,20.2146126 C10.2404033,20.170247 10.4501319,20.1137816 10.6275946,19.9161527 C11.0349521,19.4523297 10.700193,9.56685179 10.8373233,9.01833077 C10.8695892,8.80860215 10.9583205,8.63113947 11.1236835,8.49804246 C11.2930797,8.35687896 11.5996061,8.27621411 11.664138,8.27621411 C19.8919532,6.73551538 20.8962307,6.53788649 21.0373941,6.53788649 C21.5012171,6.50562054 21.7674111,6.77988105 21.7674111,7.24773721 C21.7754776,21.1422585 21.8117768,20.3961086 21.6948127,20.9002639 Z" id="Path" fill="#EF5757" fill-rule="nonzero"></path>
                    </g>
                </g>
            </g>
        </g>
    </g>
</svg>