<?xml version="1.0" encoding="UTF-8"?>
<svg width="77px" height="43px" viewBox="0 0 77 43" version="1.1" xmlns="http://www.w3.org/2000/svg" xmlns:xlink="http://www.w3.org/1999/xlink">
    <!-- Generator: Sketch 61.2 (89653) - https://sketch.com -->
    <title>ladybug</title>
    <desc>Created with Sketch.</desc>
    <g id="Home-Page" stroke="none" stroke-width="1" fill="none" fill-rule="evenodd">
        <g id="ladybug" transform="translate(0.000000, -1.000000)" fill-rule="nonzero">
            <path d="M7.92,18.11 L7.92,11.88 C7.92,9.77 9.63,8.06 11.74,8.06 L11.74,4.15 C7.48,4.15 4.01,7.62 4.01,11.89 L4.01,18.12 C4.01,20.23 2.3,21.94 0.19,21.94 L0.19,25.85 C2.3,25.85 4.01,27.56 4.01,29.67 L4.01,35.9 C4.01,40.17 7.48,43.64 11.74,43.64 L11.74,39.73 C9.63,39.73 7.92,38.02 7.92,35.91 L7.92,29.68 C7.92,27.38 6.91,25.32 5.31,23.9 C6.91,22.47 7.92,20.41 7.92,18.11 Z" id="Path" fill="#3D292B"></path>
            <path d="M72.31,18.11 L72.31,11.88 C72.31,7.61 68.84,4.14 64.57,4.14 L64.57,8.05 C66.68,8.05 68.39,9.76 68.39,11.87 L68.39,18.1 C68.39,20.4 69.4,22.46 71,23.88 C69.4,25.3 68.39,27.36 68.39,29.66 L68.39,35.89 C68.39,38 66.68,39.71 64.57,39.71 L64.57,43.62 C68.84,43.62 72.31,40.15 72.31,35.88 L72.31,29.65 C72.31,27.54 74.02,25.83 76.13,25.83 L76.13,21.92 C74.03,21.93 72.31,20.22 72.31,18.11 Z" id="Path" fill="#3D292B"></path>
            <g id="Group" transform="translate(13.000000, 0.000000)">
                <circle id="Oval" fill="#3D292B" cx="25.3" cy="23.47" r="14.29"></circle>
                <circle id="Oval" fill="#3D292B" cx="25.25" cy="9.63" r="5.79"></circle>
                <g transform="translate(19.000000, 0.000000)" fill="#3D292B" id="Path">
                    <g>
                        <line x1="4.5" y1="4.93" x2="1" y2="1.43"></line>
                        <path d="M4.5,5.36 C4.39,5.36 4.28,5.32 4.19,5.23 L0.69,1.73 C0.52,1.56 0.52,1.29 0.69,1.12 C0.86,0.95 1.13,0.95 1.3,1.12 L4.8,4.62 C4.97,4.79 4.97,5.06 4.8,5.23 C4.72,5.32 4.61,5.36 4.5,5.36 Z"></path>
                    </g>
                    <g transform="translate(7.000000, 0.000000)">
                        <line x1="0.99" y1="4.93" x2="4.49" y2="1.43"></line>
                        <path d="M0.99,5.36 C0.88,5.36 0.77,5.32 0.68,5.23 C0.51,5.06 0.51,4.79 0.68,4.62 L4.18,1.12 C4.35,0.95 4.62,0.95 4.79,1.12 C4.96,1.29 4.96,1.56 4.79,1.73 L1.29,5.23 C1.21,5.32 1.1,5.36 0.99,5.36 Z"></path>
                    </g>
                </g>
                <g transform="translate(0.000000, 7.000000)" fill="#F05657" id="Path">
                    <path d="M12.39,35.15 C3.03,31.58 -1.67,21.1 1.89,11.74 C5.45,2.38 15.94,-2.32 25.3,1.24 L12.39,35.15 Z"></path>
                    <path d="M38.21,35.15 C47.57,31.58 52.27,21.1 48.71,11.74 C45.14,2.38 34.66,-2.32 25.3,1.24 L38.21,35.15 Z"></path>
                </g>
                <g transform="translate(2.000000, 24.000000)" fill="#3D292B">
                    <circle id="Oval" cx="3.46" cy="2.98" r="2.38"></circle>
                    <path d="M3.46,5.8 C1.91,5.8 0.64,4.54 0.64,2.98 C0.64,1.42 1.9,0.16 3.46,0.16 C5.02,0.16 6.28,1.42 6.28,2.98 C6.28,4.54 5.01,5.8 3.46,5.8 Z M3.46,1.03 C2.38,1.03 1.51,1.9 1.51,2.98 C1.51,4.06 2.38,4.93 3.46,4.93 C4.54,4.93 5.41,4.06 5.41,2.98 C5.41,1.9 4.54,1.03 3.46,1.03 Z" id="Shape"></path>
                </g>
                <g transform="translate(8.000000, 32.000000)" fill="#3D292B">
                    <circle id="Oval" cx="2.16" cy="2.29" r="1.45"></circle>
                    <path d="M2.16,4.17 C1.12,4.17 0.28,3.33 0.28,2.29 C0.28,1.25 1.12,0.41 2.16,0.41 C3.2,0.41 4.04,1.25 4.04,2.29 C4.04,3.32 3.2,4.17 2.16,4.17 Z M2.16,1.27 C1.6,1.27 1.15,1.73 1.15,2.28 C1.15,2.84 1.6,3.29 2.16,3.29 C2.72,3.29 3.17,2.83 3.17,2.28 C3.18,1.73 2.72,1.27 2.16,1.27 Z" id="Shape"></path>
                </g>
                <g transform="translate(9.000000, 17.000000)" fill="#3D292B">
                    <circle id="Oval" cx="4.27" cy="4.34" r="3.63"></circle>
                    <path d="M4.27,8.4 C2.03,8.4 0.21,6.58 0.21,4.34 C0.21,2.1 2.03,0.28 4.27,0.28 C6.51,0.28 8.33,2.1 8.33,4.34 C8.33,6.58 6.51,8.4 4.27,8.4 Z M4.27,1.14 C2.51,1.14 1.07,2.57 1.07,4.33 C1.07,6.09 2.5,7.53 4.27,7.53 C6.03,7.53 7.46,6.1 7.46,4.33 C7.46,2.58 6.03,1.14 4.27,1.14 Z" id="Shape"></path>
                </g>
                <g transform="translate(42.000000, 24.000000)" fill="#3D292B">
                    <circle id="Oval" cx="3.04" cy="2.98" r="2.38"></circle>
                    <path d="M3.04,5.8 C1.49,5.8 0.22,4.54 0.22,2.98 C0.22,1.42 1.48,0.16 3.04,0.16 C4.59,0.16 5.86,1.42 5.86,2.98 C5.86,4.54 4.6,5.8 3.04,5.8 Z M3.04,1.03 C1.96,1.03 1.09,1.9 1.09,2.98 C1.09,4.06 1.96,4.93 3.04,4.93 C4.12,4.93 4.99,4.06 4.99,2.98 C4.99,1.9 4.12,1.03 3.04,1.03 Z" id="Shape"></path>
                </g>
                <g transform="translate(38.000000, 32.000000)" fill="#3D292B">
                    <circle id="Oval" cx="2.34" cy="2.29" r="1.45"></circle>
                    <path d="M2.34,4.17 C1.3,4.17 0.46,3.33 0.46,2.29 C0.46,1.25 1.3,0.41 2.34,0.41 C3.38,0.41 4.22,1.25 4.22,2.29 C4.22,3.32 3.38,4.17 2.34,4.17 Z M2.34,1.27 C1.78,1.27 1.33,1.73 1.33,2.28 C1.33,2.84 1.78,3.29 2.34,3.29 C2.9,3.29 3.35,2.83 3.35,2.28 C3.36,1.73 2.9,1.27 2.34,1.27 Z" id="Shape"></path>
                </g>
                <g transform="translate(33.000000, 17.000000)" fill="#3D292B">
                    <circle id="Oval" cx="4.24" cy="4.34" r="3.63"></circle>
                    <path d="M4.24,8.4 C2,8.4 0.18,6.58 0.18,4.34 C0.18,2.1 2,0.28 4.24,0.28 C6.48,0.28 8.3,2.1 8.3,4.34 C8.3,6.58 6.48,8.4 4.24,8.4 Z M4.24,1.14 C2.48,1.14 1.05,2.57 1.05,4.33 C1.05,6.09 2.48,7.53 4.24,7.53 C6,7.53 7.44,6.1 7.44,4.33 C7.43,2.58 6,1.14 4.24,1.14 Z" id="Shape"></path>
                </g>
            </g>
        </g>
    </g>
</svg>