<?xml version="1.0" encoding="UTF-8"?>
<svg width="48px" height="48px" viewBox="0 0 48 48" version="1.1" xmlns="http://www.w3.org/2000/svg" xmlns:xlink="http://www.w3.org/1999/xlink">
    <!-- Generator: Sketch 61.2 (89653) - https://sketch.com -->
    <title>podcast</title>
    <desc>Created with Sketch.</desc>
    <g id="Home-Page" stroke="none" stroke-width="1" fill="none" fill-rule="evenodd">
        <g id="Ladybug-Podcast-Home-Page-Copy" transform="translate(-591.000000, -1517.000000)">
            <g id="Group-12" transform="translate(335.000000, 1517.000000)">
                <g id="podcast" transform="translate(256.000000, 0.000000)">
                    <circle id="Oval-Copy-7" fill="#FFE8E8" cx="24" cy="24" r="24"></circle>
                    <path d="M26.5863424,38.921866 C26.2800596,40.0539752 25.1230571,40.3176179 24,40.3176179 C22.8770025,40.3176179 21.7199404,40.0539752 21.4137171,38.921866 C20.9584318,37.2288238 20.1885856,32.9864814 20.1885856,31.0124069 C20.1885856,28.9187494 22.043196,28.4069479 24,28.4069479 C25.956804,28.4069479 27.8114144,28.9187494 27.8114144,31.0124069 C27.8114144,32.9746303 27.0449032,37.2166154 26.5863424,38.921866 Z M20.002005,27.01066 C18.8887742,25.9203573 18.2179057,24.3800099 18.2878213,22.6871464 C18.4101439,19.7259156 20.8125856,17.3299653 23.7741141,17.2153251 C27.0290025,17.0893102 29.7171216,19.700665 29.7171216,22.9280397 C29.7171216,24.5256774 29.0582233,25.9721687 27.9980546,27.0105409 C27.8387494,27.1665707 27.855067,27.4265806 28.0354541,27.5576576 C28.5900149,27.960536 29.0157022,28.4713846 29.3000099,29.0681092 C29.4036923,29.2857171 29.686928,29.3456278 29.8627295,29.1807246 C31.5794144,27.5702233 32.6351166,25.2631266 32.573062,22.7153151 C32.4625906,18.1769926 28.7857667,14.4845658 24.2479206,14.355871 C19.4065906,14.2185409 15.4243176,18.1170223 15.4243176,22.9280397 C15.4243176,25.3912258 16.4684069,27.6148883 18.1369727,29.1804864 C18.3128337,29.3455087 18.5961886,29.2858958 18.6999305,29.0681092 C18.9842382,28.4713251 19.4099851,27.960536 19.9645459,27.5576576 C20.144933,27.4266402 20.1613102,27.1666303 20.002005,27.01066 L20.002005,27.01066 Z M24,9.82630273 C16.6275335,9.82630273 10.6600496,15.7926551 10.6600496,23.1662531 C10.6600496,28.5255782 13.7926749,33.0310868 18.1482283,35.1607742 C18.406273,35.2869082 18.7001092,35.0688238 18.6565161,34.7849926 C18.51466,33.861201 18.3979355,32.9420546 18.3345707,32.1444566 C18.3258759,32.0351166 18.2661439,31.9368536 18.1750868,31.8757519 C15.3522581,29.981598 13.4963375,26.7532109 13.5187891,23.1007444 C13.5540447,17.3695087 18.2407742,12.699871 23.972129,12.6849231 C29.7643474,12.6697965 34.4813896,17.3774888 34.4813896,23.1662531 C34.4813896,26.8545112 32.566273,30.1036228 29.6784119,31.9722283 C29.6189181,32.8081787 29.4956427,33.7938462 29.3434839,34.784933 C29.2998908,35.0688238 29.5937866,35.2869082 29.8517717,35.1607146 C34.1971414,33.0358511 37.3399504,28.5371911 37.3399504,23.1662531 C37.3399504,15.7938462 31.373598,9.82630273 24,9.82630273 Z M24,19.3548387 C21.8950273,19.3548387 20.1885856,21.0612804 20.1885856,23.1662531 C20.1885856,25.2712258 21.8950273,26.9776675 24,26.9776675 C26.1049727,26.9776675 27.8114144,25.2712258 27.8114144,23.1662531 C27.8114144,21.0612804 26.1049727,19.3548387 24,19.3548387 Z" id="Shape" fill="#EF5757" fill-rule="nonzero"></path>
                </g>
            </g>
        </g>
    </g>
</svg>