<svg xmlns="http://www.w3.org/2000/svg" viewBox="0 0 600 101.12"><defs><style>.cls-1,.cls-2{fill:#0080ff;}.cls-2{fill-rule:evenodd;}</style></defs><title>digitalocean</title><g id="Layer_2" data-name="Layer 2"><g id="Layer_1-2" data-name="Layer 1"><path class="cls-1" d="M50.56,101.12V81.54c20.78,0,36.85-20.57,28.92-42.41A29.34,29.34,0,0,0,62,21.64c-21.84-7.92-42.4,8.14-42.41,28.92H0C0,17.46,32-8.32,66.68,2.51A48.89,48.89,0,0,1,98.62,34.45C109.45,69.14,83.67,101.12,50.56,101.12Z"/><polygon class="cls-2" points="50.61 81.59 31.08 81.59 31.08 62.07 31.09 62.07 50.6 62.07 50.61 62.07 50.61 81.59"/><polygon class="cls-2" points="31.08 96.59 16.08 96.59 16.08 96.59 16.08 81.59 31.08 81.59 31.08 96.59 31.08 96.59"/><path class="cls-2" d="M16.09,81.59H3.51V69H16.09Z"/><path class="cls-1" d="M180,29.24c-5.79-4-13-6.06-21.42-6.06H140.27V81.33H158.6c8.4,0,15.61-2.15,21.42-6.39a22.06,22.06,0,0,0,7.39-9.32A33.92,33.92,0,0,0,190,51.88a33.12,33.12,0,0,0-2.61-13.57A21.14,21.14,0,0,0,180,29.24ZM151,33h5.75c6.4,0,11.67,1.26,15.66,3.75,4.44,2.67,6.69,7.76,6.69,15.12,0,7.58-2.26,12.9-6.7,15.81h0c-3.83,2.53-9.07,3.81-15.57,3.81H151Z"/><path class="cls-1" d="M202.78,22.47a6.13,6.13,0,0,0-4.5,1.85,5.87,5.87,0,0,0-1.87,4.43,6.37,6.37,0,1,0,12.74,0,5.92,5.92,0,0,0-1.86-4.43A6.17,6.17,0,0,0,202.78,22.47Z"/><rect class="cls-1" x="197.53" y="40.38" width="10.3" height="40.95"/><path class="cls-1" d="M245.26,43.8a15.5,15.5,0,0,0-10.33-4.38,18.47,18.47,0,0,0-14.05,5.85A20.45,20.45,0,0,0,215.33,60a21,21,0,0,0,5.47,14.67,18.79,18.79,0,0,0,14.13,5.76,16,16,0,0,0,10.17-3.29v.95c0,3.39-.91,6-2.71,7.85A9.91,9.91,0,0,1,235,88.65c-4.76,0-7.74-1.86-11.37-6.77l-7,6.74.19.27a25.32,25.32,0,0,0,6.9,6.19,20.89,20.89,0,0,0,11.46,3c6.11,0,11.06-1.89,14.71-5.61s5.52-8.74,5.52-14.87V40.38H245.26ZM242.55,68a8.87,8.87,0,0,1-7.07,3,8.76,8.76,0,0,1-7-3,11.83,11.83,0,0,1-2.67-8,12,12,0,0,1,2.67-8.11,9.64,9.64,0,0,1,14.09,0A11.9,11.9,0,0,1,245.26,60,11.66,11.66,0,0,1,242.55,68Z"/><rect class="cls-1" x="264.22" y="40.38" width="10.3" height="40.95"/><path class="cls-1" d="M269.47,22.47a6.13,6.13,0,0,0-4.5,1.85,5.87,5.87,0,0,0-1.86,4.43,6.37,6.37,0,1,0,12.73,0A5.92,5.92,0,0,0,274,24.32,6.17,6.17,0,0,0,269.47,22.47Z"/><path class="cls-1" d="M297.11,29.31H287V40.38h-5.89v9.39H287v17c0,5.32,1.06,9.13,3.16,11.32s5.84,3.31,11.1,3.31c1.68,0,3.36-.06,5-.16l.46,0V71.83l-3.53.19c-2.45,0-4.09-.43-4.87-1.28s-1.19-2.69-1.19-5.42V49.77h9.59V40.38h-9.59Z"/><rect class="cls-1" x="355.02" y="23.18" width="10.31" height="58.15"/><path class="cls-1" d="M469.44,66.69a29,29,0,0,1-5.18,4.78h0a9.82,9.82,0,0,1-5.35,1.37,9.39,9.39,0,0,1-7.46-3.38,12.74,12.74,0,0,1-3-8.66,12.75,12.75,0,0,1,2.94-8.63,9.29,9.29,0,0,1,7.42-3.37c3.32,0,6.82,2.07,9.82,5.61l6.81-6.53h0a20.28,20.28,0,0,0-16.86-8.47A19.81,19.81,0,0,0,444,45.55a20.91,20.91,0,0,0-6,15.26,21,21,0,0,0,6,15.31,19.81,19.81,0,0,0,14.59,6.13,20.43,20.43,0,0,0,17.54-9.13Z"/><path class="cls-1" d="M511.73,46.1a15.48,15.48,0,0,0-5.91-4.88,19.44,19.44,0,0,0-8.52-1.8,17.48,17.48,0,0,0-14,6.31,23.46,23.46,0,0,0-5.17,15.36c0,6.21,1.91,11.35,5.67,15.27s8.75,5.89,14.89,5.89a20.5,20.5,0,0,0,16.94-8.36l.24-.3-6.73-6.46h0a28.28,28.28,0,0,1-2.31,2.37,12.6,12.6,0,0,1-3,2.21,11.42,11.42,0,0,1-5.2,1.14,10,10,0,0,1-7-2.49,9.42,9.42,0,0,1-2.94-6.22H516l.09-3.76A26.5,26.5,0,0,0,515,52.75,22,22,0,0,0,511.73,46.1Zm-22.52,9.64a10.21,10.21,0,0,1,2.69-4.86,8.46,8.46,0,0,1,11.15,0,7.67,7.67,0,0,1,2.05,4.81Z"/><path class="cls-1" d="M551.31,43.44h0c-3.12-2.67-7.44-4-12.83-4a20.78,20.78,0,0,0-9.54,2.23,17,17,0,0,0-7,6.56l.11.12,6.59,6.32c2.72-4.33,5.74-5.84,9.75-5.84a8.07,8.07,0,0,1,5.31,1.72,5.38,5.38,0,0,1,2,4.39v2a26,26,0,0,0-7.59-1.17c-5.13,0-9.3,1.21-12.4,3.59A12.2,12.2,0,0,0,521,69.57a11.79,11.79,0,0,0,4,9.3,15,15,0,0,0,10,3.38A17.31,17.31,0,0,0,545.9,78v3.37h10.15V55C556.05,50,554.46,46.13,551.31,43.44ZM533,65.68a8.57,8.57,0,0,1,4.91-1.23,23,23,0,0,1,7.83,1.49v4a12.62,12.62,0,0,1-8.9,3.14,6.32,6.32,0,0,1-4.12-1.18,3.63,3.63,0,0,1-1.39-3A3.7,3.7,0,0,1,533,65.68Z"/><path class="cls-1" d="M595.69,44.24c-2.87-3.19-6.9-4.82-12-4.82a14,14,0,0,0-9.89,3.49V40.38h-10.1V81.33H574V58.74a11.18,11.18,0,0,1,2.2-7.32,7.43,7.43,0,0,1,6.1-2.61,6.59,6.59,0,0,1,5.41,2.33,9.8,9.8,0,0,1,2,6.45V81.33H600V57.59C600,51.92,598.55,47.43,595.69,44.24Z"/><path class="cls-1" d="M342.07,43.44h0c-3.12-2.67-7.44-4-12.83-4a20.73,20.73,0,0,0-9.53,2.23,16.91,16.91,0,0,0-7,6.56l.11.12,6.6,6.32c2.72-4.33,5.74-5.84,9.74-5.84a8.08,8.08,0,0,1,5.32,1.72,5.4,5.4,0,0,1,2,4.39v2a26,26,0,0,0-7.58-1.17c-5.13,0-9.31,1.21-12.41,3.59a12.2,12.2,0,0,0-4.73,10.24,11.82,11.82,0,0,0,4,9.3,15.07,15.07,0,0,0,9.95,3.38A17.34,17.34,0,0,0,336.67,78v3.37h10.14V55C346.81,50,345.22,46.13,342.07,43.44ZM323.78,65.68a8.57,8.57,0,0,1,4.91-1.23,22.87,22.87,0,0,1,7.82,1.49v4a12.61,12.61,0,0,1-8.9,3.14,6.32,6.32,0,0,1-4.12-1.18,3.63,3.63,0,0,1-1.39-3A3.7,3.7,0,0,1,323.78,65.68Z"/><path class="cls-1" d="M402.72,82.21a30,30,0,1,1,30-30A30,30,0,0,1,402.72,82.21Zm0-49.39a19.41,19.41,0,1,0,19.41,19.41A19.44,19.44,0,0,0,402.72,32.82Z"/></g></g></svg>