<svg class="logo" width="398" height="45" viewBox="0 0 398 45" fill="none" xmlns="http://www.w3.org/2000/svg"> <path d="M18.1351 28.6542C18.1351 32.966 15.8657 34.9064 12.9846 34.9064C9.96542 34.9064 7.79473 32.9464 7.73553 29.4186H0C0 37.2583 5.52538 41.2369 12.886 41.2369C20.4044 41.2369 25.8706 36.4743 25.8706 28.6542V0.54878H18.1351V28.6542Z" fill="black"></path> <path d="M38.1695 40.6882L41.1098 32.1429H56.5809L59.5212 40.6882H67.8684L52.9696 0.54878H44.7013L29.8025 40.6882H38.1695ZM48.6085 10.3092H49.0821L54.4102 25.7927H43.2805L48.6085 10.3092Z" fill="black"></path> <path d="M72.5847 0.54878V40.6882H80.2808V13.1903H80.6163L91.2526 40.159H96.8569L107.474 13.3079H107.809V40.6882H115.505V0.54878H105.717L94.3113 28.517H93.8377L82.3923 0.54878H72.5847Z" fill="black"></path> <path d="M144.198 17.3258C142.619 12.9355 139.225 10.1916 133.62 10.1916C127.227 10.1916 122.491 13.7979 122.491 18.8937C122.491 22.5784 124.938 25.8711 130.463 27.2822L135.515 28.5366C138.514 29.2422 139.856 30.5749 139.856 32.5348C139.856 35.0436 137.33 37.3171 132.989 37.3171C128.49 37.3171 126.359 34.8868 125.253 32.1429L120.991 33.7108C122.491 37.4739 125.806 41.3153 133.068 41.3153C140.567 41.3153 144.592 37.0035 144.592 32.378C144.592 28.9286 142.303 25.7927 136.778 24.4599L132.279 23.3624C128.805 22.5 127.148 20.6969 127.148 18.6585C127.148 16.0714 129.911 14.1115 133.62 14.1115C138.278 14.1115 139.462 17.169 140.014 18.5017L144.198 17.3258Z" fill="black"></path> <path d="M164.533 10.5836H158.06V4.15505H153.403V10.5836H148.825V14.8955H153.403V33.3188C153.403 38.5714 157.666 41.0801 161.612 41.0801C163.349 41.0801 164.454 40.7666 165.086 40.5314L164.138 36.3763C163.744 36.4547 163.112 36.6115 162.086 36.6115C160.034 36.6115 158.06 35.9843 158.06 32.0645V14.8955H164.533V10.5836Z" fill="black"></path> <path d="M189.733 40.6882H194.39V20.8537C194.39 11.2892 187.049 10.1916 183.181 10.1916C178.603 10.1916 173.393 11.7596 171.025 17.2474L175.446 18.8153C176.472 16.6202 178.919 14.2683 183.418 14.2683C187.049 14.2683 189.733 15.8362 189.733 20.8537V20.9321C189.733 22.892 186.102 22.7352 181.918 23.284C176.235 23.9895 170.157 25.3223 170.157 32.1429C170.157 38.0226 174.735 41.3937 180.497 41.3937C185.786 41.3937 188.549 38.5714 189.496 36.6115H189.733V40.6882ZM189.733 29.7909C189.733 33.554 186.733 37.2387 181.208 37.2387C177.498 37.2387 174.814 35.5923 174.814 32.378C174.814 28.8502 178.05 27.7526 181.681 27.2822C183.655 27.047 188.943 26.4983 189.733 25.5575V29.7909Z" fill="black"></path> <path d="M226.96 19.5993C226.171 13.9547 221.356 10.1916 214.962 10.1916C206.753 10.1916 201.306 16.6202 201.306 25.6359C201.306 34.8868 206.595 41.3153 215.041 41.3153C221.75 41.3153 226.171 37.2387 226.96 31.9077H222.303C221.435 35.2003 218.672 37.1603 215.041 37.1603C209.515 37.1603 205.963 32.6132 205.963 25.6359C205.963 18.8153 209.594 14.3467 215.041 14.3467C219.145 14.3467 221.592 16.8554 222.303 19.5993H226.96Z" fill="black"></path> <path d="M251.676 40.6882H257.123L243.941 23.4016L255.86 10.5836H250.097L237.784 24.1463H237.231V0.54878H232.574V40.6882H237.231V30.1633L240.803 26.3415L251.676 40.6882Z" fill="black"></path> <path d="M283.067 40.6882H257.808V45H283.067V40.6882Z" fill="black"></path> <path d="M310.694 19.5993C309.905 13.9547 305.09 10.1916 298.696 10.1916C290.487 10.1916 285.041 16.6202 285.041 25.6359C285.041 34.8868 290.329 41.3153 298.775 41.3153C305.484 41.3153 309.905 37.2387 310.694 31.9077H306.037C305.169 35.2003 302.406 37.1603 298.775 37.1603C293.25 37.1603 289.698 32.6132 289.698 25.6359C289.698 18.8153 293.329 14.3467 298.775 14.3467C302.88 14.3467 305.327 16.8554 306.037 19.5993H310.694Z" fill="black"></path> <path d="M329.87 41.3153C338.079 41.3153 343.605 35.1219 343.605 25.7927C343.605 16.385 338.079 10.1916 329.87 10.1916C321.661 10.1916 316.136 16.385 316.136 25.7927C316.136 35.1219 321.661 41.3153 329.87 41.3153ZM329.87 37.1603C323.634 37.1603 320.793 31.8293 320.793 25.7927C320.793 19.7561 323.634 14.3467 329.87 14.3467C336.106 14.3467 338.948 19.7561 338.948 25.7927C338.948 31.8293 336.106 37.1603 329.87 37.1603Z" fill="black"></path> <path d="M355.371 22.892C355.371 17.2474 359.712 14.6603 363.185 14.6603C367.053 14.6603 369.816 17.4826 369.816 21.8728V40.6882H374.473V21.5592C374.473 13.8763 370.368 10.1916 364.685 10.1916C360.107 10.1916 357.107 12.622 355.686 15.6794H355.371V10.5836H350.714V40.6882H355.371V22.892Z" fill="black"></path> <path d="M385.055 40.6882H389.712V14.8955H396.5V10.5836H389.712V8.85888C389.712 5.87979 390.975 4.31185 394.053 4.31185C395.395 4.31185 396.185 4.62544 396.658 4.78223L398 0.783973C397.29 0.470384 395.869 0 393.58 0C389.238 0 385.055 2.58711 385.055 7.76132V10.5836H380.161V14.8955H385.055V40.6882Z" fill="black"></path> </svg>