<svg width="455" height="97" viewBox="0 0 455 97" fill="none" xmlns="http://www.w3.org/2000/svg">
<path d="M20.4902 10.9279C23.4278 6.83954 26.5824 2.61755 31.0726 0C35.5003 2.55264 38.6239 6.69954 41.5196 10.7154C48.3402 20.6516 52.5102 32.5863 51.669 44.5812C53.8732 46.3582 56.1412 48.0643 58.3125 49.8776C61.4296 52.633 62.885 56.931 62.1345 60.9268C61.0888 65.9743 60.0838 71.0333 58.977 76.0671C58.3618 78.6569 54.7186 79.8425 52.5767 78.188C49.0215 75.334 45.5548 72.3749 42.0007 69.5173C39.3117 72.0061 35.7395 73.6656 31.9891 73.8655C27.6719 74.1583 23.3977 72.4364 20.2678 69.6234C17.7179 71.5008 15.3536 73.7545 12.8622 75.7653C11.658 76.6959 10.6568 77.9189 9.23167 78.5544C7.02229 79.4661 4.17709 78.1055 3.6777 75.8214C2.53999 70.9003 1.35141 65.9879 0.24734 61.0592C-0.649909 56.8897 0.939226 52.35 4.27967 49.5547C6.2135 47.9926 8.17433 46.4618 10.1443 44.9423C10.6931 44.6647 10.4173 44.0244 10.4485 43.5541C9.86126 31.9809 13.9717 20.5416 20.4902 10.9279ZM23.9793 26.1719C21.3995 29.366 21.7116 34.3135 24.7036 37.1661C27.8713 40.523 33.8713 40.6454 37.1845 37.4237C39.7421 35.1764 40.607 31.4034 39.3862 28.303C38.2676 25.314 35.2729 23.0717 31.9792 22.7929C28.9375 22.4562 25.7881 23.802 23.9793 26.1719Z" fill="#764ABC"/>
<path d="M19.2588 79.9514C19.2146 78.5003 21.0923 77.5026 22.3615 78.2704C27.7334 80.9305 34.4107 80.9293 39.7824 78.269C41.0152 77.5411 42.8423 78.4154 42.8878 79.8273C42.9058 82.9092 42.9096 85.9943 42.8927 89.0771C42.9175 90.5815 40.8511 91.5409 39.6366 90.6001C38.7122 89.816 37.8784 88.9343 36.9891 88.1115C35.5821 90.7479 34.2558 93.4241 32.8371 96.0543C32.1559 97.3074 30.027 97.316 29.3327 96.0752C27.9061 93.4401 26.589 90.7479 25.1546 88.1153C24.2781 88.9455 23.4419 89.8224 22.5187 90.6053C21.3093 91.5507 19.247 90.5729 19.2638 89.0781C19.238 86.0368 19.2549 82.9941 19.2588 79.9514Z" fill="#764ABC"/>
<path d="M31.0052 35.5171C33.3919 35.5171 35.3268 33.6563 35.3268 31.3609C35.3268 29.0654 33.3919 27.2046 31.0052 27.2046C28.6184 27.2046 26.6836 29.0654 26.6836 31.3609C26.6836 33.6563 28.6184 35.5171 31.0052 35.5171Z" fill="#764ABC"/>
<path d="M78.4114 20.9224H85.1813V66.5923H113.432V72.7402H78.4114V20.9224ZM119.361 54.7723C119.361 51.9911 119.909 49.4173 121.007 47.0509C122.105 44.6844 123.593 42.6351 125.472 40.903C129.448 37.2435 134.23 35.4138 139.817 35.4138C145.452 35.4138 150.149 37.1581 153.906 40.6468C157.712 44.1843 159.615 48.7342 159.615 54.2966C159.615 59.7369 157.577 64.3112 153.503 68.0195C149.551 71.6545 144.769 73.4721 139.158 73.4721C133.449 73.4721 128.741 71.7399 125.033 68.2756C121.251 64.7626 119.361 60.2615 119.361 54.7723ZM126.314 54.3697C126.314 56.2727 126.655 58.0414 127.338 59.6759C128.021 61.2861 128.961 62.6889 130.156 63.8843C132.693 66.3727 135.913 67.6169 139.817 67.6169C143.452 67.6169 146.501 66.3727 148.966 63.8843C151.43 61.4447 152.662 58.3829 152.662 54.6991C152.662 50.8445 151.381 47.6364 148.819 45.0747C146.282 42.5375 143.062 41.2689 139.158 41.2689C135.523 41.2689 132.474 42.5253 130.01 45.0382C127.546 47.5266 126.314 50.6371 126.314 54.3697ZM176.668 57.6267C175.497 59.0172 174.911 60.3224 174.911 61.5423C174.911 62.7377 175.326 63.5916 176.155 64.1039C177.009 64.6162 178.119 65.0309 179.485 65.3481C180.876 65.6652 182.449 65.9336 184.206 66.1532C185.987 66.3483 187.792 66.5679 189.622 66.8119C191.452 67.0558 193.245 67.373 195.001 67.7633C196.782 68.1293 198.368 68.6416 199.759 69.3003C202.808 70.8129 204.333 72.9841 204.333 75.8141C204.333 80.1079 202.418 83.6941 198.588 86.5729C194.977 89.2321 190.793 90.5617 186.036 90.5617C181.547 90.5617 177.717 89.6834 174.545 87.9269C170.861 85.8776 169.019 82.9988 169.019 79.2906C169.019 76.9485 169.922 74.6187 171.727 72.301C172.264 71.6179 172.825 71.008 173.411 70.4713C169.873 69.1051 168.104 66.9217 168.104 63.9209C168.104 60.0907 169.715 56.7484 172.935 53.894C171.813 52.1619 171.252 50.2712 171.252 48.2219C171.252 46.1482 171.678 44.3307 172.532 42.7693C173.411 41.1835 174.569 39.8539 176.009 38.7805C178.961 36.536 182.486 35.4138 186.585 35.4138C190.708 35.4138 194.196 36.536 197.051 38.7805C198.661 37.2435 201.174 36.1945 204.589 35.6334C205.589 35.487 206.541 35.4138 207.443 35.4138L207.151 41.086C204.248 41.4031 202.015 41.9764 200.454 42.8059C201.283 44.416 201.698 46.1482 201.698 48.0023C201.698 49.8564 201.259 51.5642 200.381 53.1255C199.527 54.6869 198.38 56.0043 196.941 57.0777C193.989 59.2734 190.561 60.3712 186.658 60.3712C182.779 60.3712 179.449 59.4564 176.668 57.6267ZM178.424 44.782C177.961 45.6603 177.729 46.6849 177.729 47.8559C177.729 49.027 177.961 50.0638 178.424 50.9665C178.912 51.8447 179.571 52.5888 180.4 53.1987C182.035 54.3697 184.133 54.9553 186.694 54.9553C190.5 54.9553 193.111 53.6623 194.526 51.0762C194.989 50.2224 195.221 49.2099 195.221 48.0389C195.221 46.8679 194.977 45.831 194.489 44.9284C194.026 44.0257 193.379 43.2694 192.55 42.6595C190.915 41.4641 188.817 40.8664 186.255 40.8664C182.449 40.8664 179.839 42.1716 178.424 44.782ZM178.497 71.7887C176.814 73.6428 175.972 75.8507 175.972 78.4123C175.972 80.486 177.18 82.1084 179.595 83.2794C181.62 84.2308 183.608 84.7066 185.56 84.7066C187.512 84.7066 189.122 84.5724 190.39 84.304C191.659 84.0601 192.806 83.6575 193.83 83.0964C196.197 81.8278 197.38 80.0469 197.38 77.7536C197.38 75.5823 195.282 74.1308 191.086 73.3989C189.28 73.0817 187.073 72.8012 184.462 72.5572C181.876 72.2888 179.888 72.0327 178.497 71.7887ZM260.176 36.8776C260.176 44.5624 256.639 49.8686 249.564 52.7962L259.408 72.7402H251.54L242.647 54.6991C240.232 55.065 237.707 55.248 235.072 55.248H221.606V72.7402H214.836V20.9224H236.097C243.757 20.9224 249.478 21.9714 253.26 24.0695C257.871 26.6067 260.176 30.8761 260.176 36.8776ZM235.987 49.1001C241.452 49.1001 245.502 48.3439 248.137 46.8313C251.381 44.9528 253.004 41.7812 253.004 37.3167C253.004 31.5104 249.247 28.2169 241.733 27.4362C239.561 27.1922 237.329 27.0703 235.036 27.0703H221.606V49.1001H235.987ZM268.3 54.7723C268.3 51.9911 268.849 49.4173 269.947 47.0509C271.045 44.6844 272.533 42.6351 274.411 40.903C278.388 37.2435 283.17 35.4138 288.756 35.4138C294.392 35.4138 299.088 37.1581 302.845 40.6468C306.651 44.1843 308.554 48.7342 308.554 54.2966C308.554 59.7369 306.517 64.3112 302.443 68.0195C298.491 71.6545 293.709 73.4721 288.098 73.4721C282.389 73.4721 277.68 71.7399 273.972 68.2756C270.191 64.7626 268.3 60.2615 268.3 54.7723ZM275.253 54.3697C275.253 56.2727 275.595 58.0414 276.278 59.6759C276.961 61.2861 277.9 62.6889 279.095 63.8843C281.633 66.3727 284.853 67.6169 288.756 67.6169C292.391 67.6169 295.441 66.3727 297.905 63.8843C300.369 61.4447 301.601 58.3829 301.601 54.6991C301.601 50.8445 300.32 47.6364 297.759 45.0747C295.221 42.5375 292.001 41.2689 288.098 41.2689C284.463 41.2689 281.413 42.5253 278.949 45.0382C276.485 47.5266 275.253 50.6371 275.253 54.3697ZM345.734 64.909L347.015 70.0688C343.965 72.3376 339.476 73.4721 333.548 73.4721C327.888 73.4721 323.448 71.7399 320.228 68.2756C317.081 64.909 315.507 60.3224 315.507 54.5161C315.507 49.1001 317.276 44.5624 320.813 40.903C324.399 37.2435 328.876 35.4138 334.243 35.4138C339.074 35.4138 343.002 36.5238 346.027 38.7439L343.612 44.1965C340.855 42.1472 337.512 41.1225 333.585 41.1225C330.218 41.1225 327.498 42.4156 325.424 45.0016C323.448 47.4412 322.46 50.4663 322.46 54.077C322.46 57.956 323.497 61.1519 325.57 63.6647C327.742 66.2995 330.73 67.6169 334.536 67.6169C338.342 67.6169 342.075 66.7143 345.734 64.909ZM354.992 15.6162H361.945V52.2473L378.376 36.1457H386.5L369.301 52.9792L379.547 64.0307C381.719 66.3239 384.305 67.5804 387.305 67.7999L386.244 72.7402C382.56 73.2525 379.56 72.5694 377.242 70.6909C376.534 70.1054 375.839 69.4345 375.156 68.6782L361.945 54.4063V72.7402H354.992V15.6162ZM421.741 39.366C423.034 40.659 424.046 42.2936 424.778 44.2697C425.534 46.2214 425.913 48.2829 425.913 50.4541C425.913 52.6254 425.669 55.1748 425.181 58.1024H399.711C400.248 61.0543 401.443 63.3842 403.297 65.0919C405.151 66.7753 407.774 67.6169 411.165 67.6169C415.703 67.6169 419.862 66.7875 423.644 65.1285L424.815 70.3615C422.302 71.8253 418.716 72.789 414.056 73.2525C412.763 73.3989 411.08 73.4721 409.006 73.4721C406.932 73.4721 404.761 73.0573 402.492 72.2279C400.223 71.3984 398.345 70.1786 396.856 68.5684C393.905 65.3725 392.429 60.6884 392.429 54.5161C392.429 49.1001 394.197 44.5624 397.735 40.903C401.321 37.2435 405.798 35.4138 411.165 35.4138C415.581 35.4138 419.106 36.7312 421.741 39.366ZM419.289 52.723L419.435 50.7469C419.435 46.2824 417.764 43.3182 414.422 41.8544C413.3 41.3665 411.958 41.1225 410.396 41.1225C408.835 41.1225 407.396 41.4275 406.078 42.0374C404.785 42.6473 403.663 43.4768 402.712 44.5258C400.76 46.6727 399.662 49.4051 399.418 52.723H419.289ZM435.464 41.7812H431.548V37.2435L440.55 30.4736H442.417V36.1457H452.883V41.7812H442.417V56.5654C442.417 60.7128 442.941 63.5428 443.99 65.0553C445.039 66.5435 447.089 67.4584 450.138 67.7999L449.077 72.7402C441.758 73.6672 437.428 70.7763 436.086 64.0673C435.671 62.0668 435.464 59.9077 435.464 57.5901V41.7812Z" fill="#764ABC"/>
</svg>
