<?xml version="1.0" encoding="utf-8"?>
<!-- Generator: Adobe Illustrator 22.0.1, SVG Export Plug-In . SVG Version: 6.00 Build 0)  -->
<svg version="1.1" id="Layer_1" xmlns="http://www.w3.org/2000/svg" xmlns:xlink="http://www.w3.org/1999/xlink" x="0px" y="0px"
	 viewBox="0 0 150 150" style="enable-background:new 0 0 150 150;" xml:space="preserve">
<style type="text/css">
	.st0{fill:#2A2D2D;}
	.st1{fill:#FFFFFF;}
	.st2{fill:#3DC06C;}
</style>
<g>
	<g>
		<rect x="37.9" y="16.7" width="76.4" height="6.4"/>
		<rect x="37.9" y="16.7" width="6.4" height="63.7"/>
		<rect x="107.9" y="16.7" width="6.4" height="63.7"/>
		<rect x="37.9" y="74.1" width="76.4" height="6.4"/>
		<rect x="63.4" y="74.1" width="25.5" height="19.1"/>
		<rect x="44.2" y="86.8" width="63.7" height="6.4"/>
		<rect x="44.2" y="86.8" class="st0" width="6.4" height="25.5"/>
		<rect x="101.6" y="86.8" width="6.4" height="25.5"/>
		<rect x="44.2" y="105.9" width="63.7" height="6.4"/>
		<rect x="37.9" y="93.2" width="12.7" height="19.1"/>
		<rect x="101.6" y="93.2" class="st0" width="12.7" height="19.1"/>
		<rect x="101.6" y="93.2" width="12.7" height="19.1"/>
		<rect x="44.2" y="86.8" width="12.7" height="12.7"/>
		<rect x="63.4" y="86.8" width="6.4" height="12.7"/>
		<rect x="76.1" y="86.8" width="6.4" height="12.7"/>
		<rect x="88.8" y="86.8" width="6.4" height="12.7"/>
		<rect x="95.2" y="99.5" width="12.7" height="12.7"/>
		<rect x="82.5" y="99.5" width="6.4" height="12.7"/>
		<rect x="69.7" y="99.5" width="6.4" height="12.7"/>
		<rect x="57" y="99.5" width="6.4" height="12.7"/>
		<rect x="44.2" y="23.1" class="st1" width="63.7" height="51"/>
		<rect x="50.6" y="99.5" class="st1" width="6.4" height="6.4"/>
		<rect x="57" y="93.2" class="st1" width="6.4" height="6.4"/>
		<rect x="63.4" y="99.5" class="st1" width="6.4" height="6.4"/>
		<rect x="69.7" y="93.2" class="st1" width="6.4" height="6.4"/>
		<rect x="76.1" y="99.5" class="st1" width="6.4" height="6.4"/>
		<rect x="82.5" y="93.2" class="st1" width="6.4" height="6.4"/>
		<rect x="88.8" y="99.5" class="st1" width="6.4" height="6.4"/>
		<rect x="95.2" y="93.2" class="st1" width="6.4" height="6.4"/>
		<rect x="50.6" y="29.5" width="51" height="38.2"/>
		<rect x="50.6" y="35.8" class="st2" width="6.4" height="6.4"/>
		<rect x="63.4" y="35.8" class="st2" width="6.4" height="6.4"/>
		<rect x="76.1" y="35.8" class="st2" width="6.4" height="6.4"/>
		<rect x="57" y="48.6" class="st2" width="12.7" height="6.4"/>
		<rect x="76.1" y="48.6" class="st2" width="12.7" height="6.4"/>
	</g>
	<g>
		<path d="M32.2,123.1c0.4,0.2,0.7,0.4,0.9,0.7c0.2,0.3,0.4,0.5,0.5,0.8c0.1,0.3,0.2,0.7,0.2,1c0,0.5-0.1,0.9-0.4,1.4
			c-0.2,0.5-0.6,0.8-1.2,1c0.5,0.2,0.8,0.4,1,0.8c0.2,0.3,0.3,0.9,0.3,1.5v0.7c0,0.5,0,0.8,0.1,0.9c0.1,0.3,0.2,0.4,0.4,0.6v0.2
			h-2.3c-0.1-0.2-0.1-0.4-0.1-0.5c-0.1-0.3-0.1-0.6-0.1-0.9l0-0.9c0-0.6-0.1-1.1-0.3-1.3c-0.2-0.2-0.6-0.3-1.2-0.3h-2v3.9h-2v-9.9
			h4.7C31.4,122.8,31.9,122.9,32.2,123.1z M28,124.6v2.7h2.2c0.4,0,0.8-0.1,1-0.2c0.4-0.2,0.6-0.6,0.6-1.1c0-0.6-0.2-1-0.6-1.2
			c-0.2-0.1-0.5-0.2-1-0.2H28z"/>
		<path d="M40.4,125.6c0.5,0.2,0.9,0.6,1.3,1.1c0.3,0.4,0.5,0.9,0.6,1.5c0.1,0.3,0.1,0.8,0.1,1.5H37c0,0.7,0.3,1.2,0.8,1.5
			c0.3,0.2,0.6,0.3,1.1,0.3c0.4,0,0.8-0.1,1.1-0.3c0.1-0.1,0.3-0.3,0.4-0.5h2c-0.1,0.4-0.3,0.9-0.7,1.3c-0.7,0.7-1.6,1.1-2.8,1.1
			c-1,0-1.8-0.3-2.6-0.9c-0.7-0.6-1.1-1.6-1.1-2.9c0-1.3,0.3-2.2,1-2.9c0.7-0.7,1.5-1,2.6-1C39.4,125.2,39.9,125.3,40.4,125.6z
			 M37.6,127.2c-0.3,0.3-0.4,0.7-0.5,1.1h3.3c0-0.5-0.2-0.9-0.5-1.2c-0.3-0.3-0.7-0.4-1.1-0.4C38.2,126.8,37.9,126.9,37.6,127.2z"/>
		<path d="M47.7,128c0-0.3-0.1-0.5-0.3-0.7c-0.2-0.3-0.5-0.4-1-0.4c-0.6,0-1.1,0.3-1.3,1c-0.1,0.3-0.2,0.8-0.2,1.4
			c0,0.5,0.1,1,0.2,1.3c0.2,0.6,0.7,0.9,1.3,0.9c0.4,0,0.8-0.1,1-0.4c0.2-0.2,0.3-0.6,0.3-0.9h2c0,0.6-0.3,1.1-0.6,1.7
			c-0.6,0.8-1.5,1.3-2.7,1.3s-2-0.3-2.6-1c-0.6-0.7-0.8-1.6-0.8-2.7c0-1.3,0.3-2.2,0.9-2.9c0.6-0.7,1.5-1,2.5-1
			c0.9,0,1.7,0.2,2.3,0.6c0.6,0.4,0.9,1.1,1,2.2H47.7z"/>
		<path d="M52.9,125.4v4.4c0,0.4,0,0.7,0.1,0.9c0.2,0.4,0.5,0.6,1,0.6c0.6,0,1.1-0.3,1.3-0.8c0.1-0.3,0.2-0.7,0.2-1.1v-4h1.9v7.3
			h-1.9v-1c0,0-0.1,0.1-0.1,0.2c-0.1,0.1-0.2,0.2-0.3,0.3c-0.3,0.3-0.6,0.5-0.9,0.6c-0.3,0.1-0.6,0.1-1,0.1c-1.1,0-1.8-0.4-2.2-1.2
			c-0.2-0.4-0.3-1.1-0.3-1.9v-4.4H52.9z"/>
		<path d="M63.4,125.2c0,0,0.1,0,0.2,0v2c-0.1,0-0.2,0-0.3,0c-0.1,0-0.2,0-0.2,0c-0.8,0-1.3,0.3-1.6,0.8c-0.1,0.3-0.2,0.7-0.2,1.3
			v3.5h-1.9v-7.3h1.8v1.3c0.3-0.5,0.6-0.8,0.8-1C62.3,125.4,62.8,125.2,63.4,125.2C63.4,125.2,63.4,125.2,63.4,125.2z"/>
		<path d="M66.2,130.4c0,0.3,0.1,0.6,0.3,0.7c0.2,0.3,0.7,0.4,1.3,0.4c0.4,0,0.7-0.1,0.9-0.2c0.2-0.1,0.3-0.3,0.3-0.5
			c0-0.2-0.1-0.4-0.3-0.5s-0.8-0.3-2-0.6c-0.8-0.2-1.4-0.5-1.8-0.8c-0.3-0.3-0.5-0.7-0.5-1.3c0-0.7,0.3-1.3,0.8-1.7
			c0.5-0.5,1.3-0.7,2.2-0.7c0.9,0,1.7,0.2,2.2,0.5c0.6,0.4,0.9,1,1,1.9h-1.9c0-0.2-0.1-0.4-0.2-0.6c-0.2-0.3-0.6-0.4-1.1-0.4
			c-0.4,0-0.7,0.1-0.9,0.2c-0.2,0.1-0.3,0.3-0.3,0.5c0,0.2,0.1,0.4,0.3,0.5c0.2,0.1,0.9,0.3,2,0.5c0.8,0.2,1.3,0.4,1.7,0.8
			c0.4,0.4,0.6,0.8,0.6,1.4c0,0.7-0.3,1.3-0.8,1.8c-0.5,0.5-1.4,0.7-2.5,0.7c-1.2,0-2-0.2-2.6-0.7c-0.5-0.5-0.8-1.1-0.8-1.9H66.2z"
			/>
		<path d="M77.1,125.6c0.5,0.2,0.9,0.6,1.3,1.1c0.3,0.4,0.5,0.9,0.6,1.5c0.1,0.3,0.1,0.8,0.1,1.5h-5.3c0,0.7,0.3,1.2,0.8,1.5
			c0.3,0.2,0.6,0.3,1.1,0.3c0.4,0,0.8-0.1,1.1-0.3c0.1-0.1,0.3-0.3,0.4-0.5h2c-0.1,0.4-0.3,0.9-0.7,1.3c-0.7,0.7-1.6,1.1-2.8,1.1
			c-1,0-1.8-0.3-2.6-0.9c-0.7-0.6-1.1-1.6-1.1-2.9c0-1.3,0.3-2.2,1-2.9c0.7-0.7,1.5-1,2.6-1C76,125.2,76.6,125.3,77.1,125.6z
			 M74.3,127.2c-0.3,0.3-0.4,0.7-0.5,1.1H77c0-0.5-0.2-0.9-0.5-1.2c-0.3-0.3-0.7-0.4-1.1-0.4C74.9,126.8,74.5,126.9,74.3,127.2z"/>
		<path d="M84.9,123.9c0.8-0.8,1.8-1.2,3-1.2c1.6,0,2.9,0.5,3.6,1.6c0.4,0.6,0.6,1.2,0.7,1.8h-2.1c-0.1-0.5-0.3-0.8-0.5-1.1
			c-0.4-0.4-0.9-0.6-1.6-0.6c-0.7,0-1.3,0.3-1.7,0.9c-0.4,0.6-0.6,1.5-0.6,2.6c0,1.1,0.2,1.9,0.7,2.5c0.4,0.6,1,0.8,1.7,0.8
			c0.7,0,1.2-0.2,1.6-0.7c0.2-0.3,0.4-0.6,0.5-1.1h2.1c-0.2,1.1-0.6,2-1.4,2.6c-0.7,0.7-1.7,1-2.8,1c-1.4,0-2.5-0.5-3.3-1.4
			c-0.8-0.9-1.2-2.2-1.2-3.8C83.5,126.1,84,124.8,84.9,123.9z"/>
		<path d="M98.5,125.6c0.5,0.2,0.9,0.6,1.3,1.1c0.3,0.4,0.5,0.9,0.6,1.5c0.1,0.3,0.1,0.8,0.1,1.5h-5.3c0,0.7,0.3,1.2,0.8,1.5
			c0.3,0.2,0.6,0.3,1.1,0.3c0.4,0,0.8-0.1,1.1-0.3c0.1-0.1,0.3-0.3,0.4-0.5h2c-0.1,0.4-0.3,0.9-0.7,1.3c-0.7,0.7-1.6,1.1-2.8,1.1
			c-1,0-1.8-0.3-2.6-0.9c-0.7-0.6-1.1-1.6-1.1-2.9c0-1.3,0.3-2.2,1-2.9c0.7-0.7,1.5-1,2.6-1C97.4,125.2,98,125.3,98.5,125.6z
			 M95.7,127.2c-0.3,0.3-0.4,0.7-0.5,1.1h3.3c0-0.5-0.2-0.9-0.5-1.2c-0.3-0.3-0.7-0.4-1.1-0.4C96.3,126.8,95.9,126.9,95.7,127.2z"/>
		<path d="M107.3,125.8c0.5,0.4,0.7,1.1,0.7,2v4.9h-2v-4.4c0-0.4-0.1-0.7-0.2-0.9c-0.2-0.4-0.5-0.6-1.1-0.6c-0.6,0-1.1,0.3-1.3,0.8
			c-0.1,0.3-0.2,0.7-0.2,1.1v4h-1.9v-7.3h1.9v1.1c0.2-0.4,0.5-0.6,0.7-0.8c0.4-0.3,0.9-0.4,1.5-0.4
			C106.2,125.2,106.8,125.4,107.3,125.8z"/>
		<path d="M109,126.8v-1.4h1v-2h1.9v2h1.2v1.4h-1.2v3.9c0,0.3,0,0.5,0.1,0.6c0.1,0.1,0.3,0.1,0.7,0.1c0.1,0,0.1,0,0.2,0
			c0.1,0,0.1,0,0.2,0v1.4l-0.9,0c-0.9,0-1.5-0.1-1.9-0.5c-0.2-0.2-0.3-0.6-0.3-1v-4.5H109z"/>
		<path d="M119.1,125.6c0.5,0.2,0.9,0.6,1.3,1.1c0.3,0.4,0.5,0.9,0.6,1.5c0.1,0.3,0.1,0.8,0.1,1.5h-5.3c0,0.7,0.3,1.2,0.8,1.5
			c0.3,0.2,0.6,0.3,1.1,0.3c0.4,0,0.8-0.1,1.1-0.3c0.1-0.1,0.3-0.3,0.4-0.5h2c-0.1,0.4-0.3,0.9-0.7,1.3c-0.7,0.7-1.6,1.1-2.8,1.1
			c-1,0-1.8-0.3-2.6-0.9c-0.7-0.6-1.1-1.6-1.1-2.9c0-1.3,0.3-2.2,1-2.9c0.7-0.7,1.5-1,2.6-1C118,125.2,118.6,125.3,119.1,125.6z
			 M116.3,127.2c-0.3,0.3-0.4,0.7-0.5,1.1h3.3c0-0.5-0.2-0.9-0.5-1.2c-0.3-0.3-0.7-0.4-1.1-0.4C116.9,126.8,116.5,126.9,116.3,127.2
			z"/>
		<path d="M126.1,125.2c0,0,0.1,0,0.2,0v2c-0.1,0-0.2,0-0.3,0c-0.1,0-0.2,0-0.2,0c-0.8,0-1.3,0.3-1.6,0.8c-0.1,0.3-0.2,0.7-0.2,1.3
			v3.5H122v-7.3h1.8v1.3c0.3-0.5,0.6-0.8,0.8-1C124.9,125.4,125.4,125.2,126.1,125.2C126,125.2,126,125.2,126.1,125.2z"/>
	</g>
</g>
</svg>
