<?xml version="1.0" encoding="UTF-8"?>
<svg width="219px" height="84px" viewBox="0 0 219 84" version="1.1" xmlns="http://www.w3.org/2000/svg" xmlns:xlink="http://www.w3.org/1999/xlink">
    <!-- Generator: Sketch 61.2 (89653) - https://sketch.com -->
    <title>logo</title>
    <desc>Created with Sketch.</desc>
    <g id="Home-Page" stroke="none" stroke-width="1" fill="none" fill-rule="evenodd">
        <g id="Ladybug-Podcast-Home-Page-Copy" transform="translate(-23.000000, -14.000000)" fill-rule="nonzero">
            <g id="logo" transform="translate(23.000000, 14.000000)">
                <g id="Group" transform="translate(2.000000, 0.000000)" fill="#FFFFFF">
                    <path d="M27.12,10.34 C22.75,23.89 15.35,35.52 4.88,45.23 C4.03,47.3 3.48,48.84 3.19,49.89 C2.9,50.94 2.75,51.52 2.75,51.67 C2.75,51.82 2.84,52.08 2.98,52.46 C4.29,52.46 6.21,51.79 8.75,50.48 C11.29,49.17 14.17,47.48 17.41,45.44 C20.64,43.4 22.48,42.23 22.95,41.94 C23.21,41.74 23.56,41.91 23.97,42.46 C24.38,43.01 24.44,43.39 24.17,43.6 C19.77,46.95 15.54,49.81 11.49,52.2 C7.44,54.59 4.73,55.61 3.36,55.29 C1,54.74 -0.02,52.99 0.27,50.04 C0.39,48.73 1.09,46.57 2.34,43.57 C2.43,43.42 2.66,42.84 3.07,41.82 C3.39,41.09 3.86,40.1 4.5,38.82 C5.14,37.54 5.58,36.63 5.81,36.14 C10.74,25.97 14.58,18.65 17.35,14.22 C17.44,14.13 17.64,13.81 17.96,13.26 C18.28,12.71 18.63,12.12 19.01,11.51 C19.39,10.9 19.86,10.2 20.38,9.41 C20.9,8.62 21.43,7.92 21.92,7.28 C22.42,6.64 22.91,6.03 23.38,5.44 C23.85,4.86 24.31,4.42 24.75,4.13 C25.19,3.84 25.54,3.72 25.8,3.81 C26.94,4.13 27.58,5.01 27.72,6.43 C27.87,7.86 27.69,9.08 27.2,10.1 L27.12,10.34 Z M15.37,24.07 C13.1,28.06 10.53,32.87 7.68,38.5 C11.09,34.27 14.38,29.52 17.56,24.28 C20.74,19.03 23.18,13.9 24.9,8.92 C24.99,8.8 25.1,8.51 25.25,8.02 C24.73,8.54 23.82,9.77 22.51,11.66 C22.01,12.33 21.32,13.47 20.38,15.07 C19.45,16.67 18.43,18.48 17.32,20.49 L15.37,24.02 L15.37,24.07 L15.37,24.07 Z" id="Shape"></path>
                    <path d="M40,41.61 C40.15,41.52 40.35,41.64 40.58,41.96 C40.81,42.28 40.96,42.63 40.99,43.01 C41.02,43.39 40.93,43.68 40.73,43.88 C40.5,44.03 40.03,44.38 39.36,44.93 C38.69,45.48 38.11,45.95 37.61,46.33 C37.11,46.71 36.5,47.15 35.74,47.61 C34.98,48.08 34.31,48.43 33.73,48.63 C33.15,48.83 32.54,48.92 31.86,48.89 C31.19,48.86 30.61,48.69 30.11,48.34 C29.24,47.67 28.65,46.83 28.39,45.83 L27.84,46.21 L27.3,46.6 C27.21,46.63 26.95,46.8 26.48,47.12 C26.01,47.44 25.66,47.7 25.4,47.88 C25.14,48.06 24.73,48.29 24.18,48.61 C23.63,48.93 23.19,49.13 22.9,49.22 C22.61,49.31 22.2,49.39 21.71,49.48 C21.21,49.57 20.89,49.51 20.75,49.28 C18.13,47.68 18.16,45.61 20.84,43.07 C23.52,40.53 26.03,39.11 28.33,38.82 C28.71,38.79 29.12,39.2 29.52,40.07 C29.84,40.71 29.87,41.06 29.61,41.09 C27.37,41.35 25.01,42.9 22.53,45.7 C22.65,45.67 22.79,45.61 22.97,45.53 C25.88,43.93 28.16,42.53 29.76,41.33 C30.63,40.34 31.57,39.64 32.56,39.26 C32.82,39.11 33.17,39.35 33.61,39.96 C34.05,40.57 34.13,40.98 33.87,41.21 C33.02,42.05 32.15,42.87 31.25,43.66 C30.81,44.27 30.52,44.88 30.38,45.5 C30.15,46.37 30.7,46.55 32.04,46.02 C32.24,45.99 32.83,45.76 33.79,45.32 C34.55,44.94 36.65,43.69 40.11,41.56 L40,41.61 Z" id="Path"></path>
                    <path d="M72.47,2.79 C72.97,2.56 73.49,2.88 74.04,3.75 C74.59,4.63 74.8,5.27 74.65,5.64 C74.39,6.25 74.1,6.84 73.78,7.42 C73.46,8 73.2,8.5 72.99,8.91 C72.78,9.32 72.47,9.81 72.06,10.4 C71.65,10.99 71.36,11.39 71.19,11.62 C71.02,11.85 70.69,12.29 70.2,12.96 L69.3,14.18 C68.51,15.26 67.99,15.93 67.76,16.22 C67.12,17.53 64.61,22.11 60.24,29.92 C55.87,37.73 53.42,42.16 52.9,43.18 C50.16,48.63 48.38,52.51 47.54,54.81 C46.99,56.24 46.43,57.75 45.91,59.36 C45.36,61.34 45.15,62.71 45.3,63.5 C45.3,63.59 45.33,63.67 45.39,63.79 L45.54,64.08 C45.63,64.28 45.69,64.43 45.71,64.52 C45.74,64.61 45.77,64.72 45.8,64.87 C45.83,65.02 45.8,65.07 45.71,65.07 L45.27,65.07 C44.51,64.92 43.78,63.99 43.11,62.27 C42.79,61.19 42.76,60 43.02,58.69 C43.89,54.7 45.67,50.09 48.32,44.88 C48.35,44.73 48.44,44.56 48.55,44.38 C46.54,46.62 44.76,48.49 43.25,49.98 C42.87,50.36 42.58,50.62 42.38,50.8 C42.18,50.97 41.86,51.24 41.42,51.59 C40.98,51.94 40.6,52.14 40.31,52.23 C40.02,52.32 39.67,52.35 39.26,52.32 C38.85,52.29 38.47,52.15 38.12,51.85 C35.47,49.9 35.76,46.81 39.02,42.55 C39.52,41.91 39.89,41.41 40.16,41.06 C40.42,40.71 40.89,40.19 41.53,39.49 C42.17,38.79 42.75,38.27 43.25,37.89 C43.75,37.51 44.3,37.16 44.94,36.81 C45.58,36.46 46.22,36.31 46.83,36.34 C47.44,36.37 48.02,36.6 48.58,37.04 C48.81,37.27 49.05,37.62 49.25,38.09 C51,36.02 52.28,34.45 53.13,33.37 C53.45,32.93 55.52,29.58 59.37,23.34 C63.22,17.1 65.26,13.81 65.49,13.46 C65.58,13.34 65.69,13.14 65.84,12.85 C65.99,12.56 66.1,12.33 66.19,12.18 C66.39,11.8 66.77,10.99 67.36,9.73 C67.94,8.48 68.44,7.46 68.85,6.67 C69.26,5.88 69.81,5.07 70.54,4.22 C71.27,3.38 72,2.79 72.75,2.47 L72.47,2.79 Z M48.6,38.84 C46.97,38.49 44.58,40.38 41.43,44.55 C41.31,44.7 41.23,44.81 41.2,44.9 C39.92,46.74 39.1,48.08 38.75,48.92 C38.98,48.8 39.19,48.66 39.33,48.51 C39.91,48.01 40.47,47.52 40.99,47 C43.36,44.64 45.89,41.93 48.6,38.84 Z" id="Shape"></path>
                    <path d="M73.73,41.79 C73.93,41.67 74.2,41.76 74.55,42.05 C74.9,42.34 75.16,42.66 75.34,43.01 C75.52,43.36 75.51,43.56 75.37,43.65 C70.79,46.24 66.45,49.19 62.37,52.48 C60.65,56.12 59.05,59.45 57.53,62.45 C56.01,65.45 54.21,68.83 52.11,72.59 C50.01,76.35 48.12,79.09 46.43,80.81 C44.74,82.53 43.43,82.94 42.52,82.03 C41.44,80.95 41.62,78.45 43.04,74.51 C44.47,70.58 46.83,66.26 50.12,61.57 C53.41,56.88 56.85,53.15 60.47,50.38 C61.66,47.84 62.39,46.33 62.66,45.86 C61.29,46.73 60.07,47.08 58.99,46.88 C58.32,46.76 57.68,46.36 57.1,45.66 C56.52,44.96 56.25,44.26 56.28,43.53 C56.31,42.31 56.92,40.67 58.09,38.63 C59.26,36.59 60.33,36.18 61.33,37.44 C61.68,37.94 61.85,38.37 61.85,38.75 C61.85,38.9 61.7,38.87 61.44,38.66 L60.07,41.28 C59.28,42.88 59.11,43.67 59.55,43.64 C59.9,43.61 60.6,43.14 61.65,42.27 C62,42.01 62.35,41.69 62.7,41.34 C63.05,40.99 63.4,40.61 63.78,40.17 C64.16,39.73 64.45,39.38 64.65,39.15 C64.85,38.92 65.17,38.51 65.61,37.93 C66.05,37.35 66.34,36.97 66.46,36.79 C66.58,36.62 66.81,36.7 67.16,37.02 C67.51,37.34 67.83,37.72 68.09,38.19 C68.35,38.66 68.44,38.98 68.35,39.18 C67.91,40.17 66.66,43 64.59,47.66 C65.46,47.02 67.01,45.97 69.22,44.51 C71.43,43.05 72.95,42.09 73.8,41.65 L73.73,41.79 Z M45.34,77.31 C46.24,76.29 47.73,74.05 49.77,70.61 C51.81,67.17 53.62,63.97 55.22,60.99 C56.82,58.01 57.55,56.65 57.41,56.85 C51.2,64.37 47.21,70.52 45.43,75.33 C44.88,76.87 44.79,77.6 45.17,77.49 C45.26,77.49 45.34,77.43 45.43,77.32 L45.34,77.32 L45.34,77.31 Z" id="Shape"></path>
                    <path d="M101.91,0.9 C102.87,2.18 103.02,3.87 102.35,5.97 C101.21,9.23 98.79,13.63 95.09,19.17 C91.39,24.71 87.78,29.66 84.25,34.03 C80.72,38.4 78.22,41.14 76.73,42.25 C74.98,45.75 73.76,48.66 73.03,51.02 L74.28,50.18 C75.07,49.63 75.85,49.01 76.64,48.37 C77.43,47.73 78.24,46.85 79.06,45.75 C79.88,44.64 80.4,43.51 80.63,42.37 C80.48,42.05 80.28,41.5 80.05,40.68 C79.82,39.86 79.85,39.4 80.14,39.25 C80.14,39.16 80.2,39.13 80.31,39.13 C80.51,39.1 80.69,39.07 80.86,39.07 C81.03,39.07 81.36,39.1 81.82,39.16 C82.29,39.22 82.61,39.42 82.81,39.77 C83.01,40.12 83.25,40.62 83.48,41.29 C83.71,41.96 83.68,42.86 83.39,44 C84,44.61 84.56,44.93 85.05,44.96 C85.95,44.99 88.17,44.03 91.67,42.04 L92.46,41.6 C92.66,41.48 92.93,41.63 93.28,42.04 C93.63,42.45 93.78,42.74 93.69,42.94 C93.19,43.9 92.41,44.81 91.3,45.65 C90.19,46.49 89.11,47.05 88.04,47.31 C87.19,47.66 86.35,47.75 85.48,47.57 C84.61,47.4 83.79,46.78 83.03,45.76 C82.53,47.16 81.81,48.44 80.82,49.61 C79.83,50.78 78.11,52.2 75.69,53.86 C74.93,54.38 74.38,54.76 74,54.97 C73.62,55.18 73.15,55.35 72.6,55.49 C72.05,55.63 71.58,55.52 71.2,55.17 C70.82,54.82 70.47,54.21 70.15,53.36 C69.77,52.25 70,50.39 70.88,47.79 C71.76,45.19 72.66,42.95 73.62,41.06 C74.58,39.17 75.14,38.15 75.25,38 C83.38,23.11 88.48,14.13 90.58,11.07 C90.96,10.43 91.66,9.5 92.65,8.3 C93.64,7.1 94.78,5.79 96.06,4.34 C97.34,2.89 98.57,1.78 99.7,1.02 C100.84,0.26 101.62,0.18 102.06,0.79 L101.91,0.9 Z M99.17,5.44 C97.89,6.96 96.28,9.11 94.39,11.94 C92.5,14.77 90.83,17.36 89.41,19.72 C87.98,22.08 86.5,24.59 84.92,27.24 C83.35,29.89 82.47,31.32 82.33,31.55 C85.19,28.05 88.48,23.54 92.18,18 C95.88,12.46 98.24,8.27 99.23,5.41 L99.17,5.44 Z" id="Shape"></path>
                    <path d="M111.62,41.84 C111.88,41.64 112.23,41.81 112.64,42.36 C113.05,42.91 113.14,43.32 112.9,43.58 C111.47,45.24 109.32,46.73 106.46,48.04 C103.6,49.35 101.5,49.29 100.14,47.89 C99.41,47.16 99.62,45.91 100.72,44.13 C99.61,45.65 97.84,47.1 95.42,48.53 C93,49.96 91.28,50.07 90.29,48.91 C88.92,47.16 88.89,45.12 90.17,42.76 C91.45,40.4 93.14,39.06 95.21,38.71 C95.47,38.68 95.82,38.97 96.23,39.61 C96.64,40.25 96.73,40.69 96.49,40.92 C94.19,43.11 92.64,45.06 91.86,46.78 C92.18,47.16 93.14,46.81 94.77,45.76 C96.4,44.71 98.24,43.37 100.28,41.74 C102.32,40.11 103.57,39.15 104.01,38.85 C104.16,38.73 104.39,38.82 104.71,39.11 C105.03,39.4 105.26,39.75 105.41,40.16 C105.56,40.57 105.56,40.83 105.41,40.98 C104.62,41.65 103.89,42.58 103.2,43.78 C102.5,44.97 102.15,45.91 102.15,46.61 C102.5,46.52 102.85,46.44 103.17,46.32 C103.49,46.2 103.84,46.06 104.22,45.91 C104.6,45.76 104.92,45.62 105.18,45.5 C105.44,45.38 105.79,45.21 106.23,44.97 C106.67,44.74 106.99,44.56 107.19,44.47 C107.39,44.38 107.74,44.18 108.24,43.86 C108.74,43.54 109.08,43.34 109.26,43.25 C109.44,43.16 109.84,42.9 110.46,42.49 C111.07,42.08 111.45,41.82 111.6,41.7 L111.62,41.84 Z" id="Path"></path>
                    <path d="M129.75,41.76 C129.95,41.64 130.22,41.67 130.57,41.88 C130.92,42.08 131.18,42.35 131.39,42.67 C131.6,42.99 131.59,43.22 131.39,43.37 C130.95,43.69 129.09,45.03 125.79,47.39 C122.5,49.75 120.43,51.47 119.55,52.55 C117.66,58 114.65,64.47 110.54,71.96 C106.29,79.74 103.43,83.53 102,83.3 C101.62,83.21 101.36,82.75 101.21,81.9 C100.83,79.04 102.2,74.21 105.35,67.41 C108.5,60.62 112.37,54.94 116.95,50.39 C117.07,50.01 117.39,49.08 117.91,47.59 C118.44,46.1 118.73,45.2 118.81,44.88 C117.85,45.75 117.03,46.4 116.36,46.8 C115.69,47.21 114.99,47.38 114.23,47.35 C113.47,47.32 112.74,46.94 112.02,46.18 C111.12,44.96 110.82,43.64 111.15,42.25 C111.47,40.85 112.14,39.69 113.16,38.72 C115.7,36.36 118.41,36.04 121.29,37.76 C122.05,37.09 122.78,36.57 123.5,36.19 C123.85,35.99 124.38,36.28 125.04,37.06 C125.71,37.85 125.91,38.37 125.65,38.63 C124.89,39.42 123.99,40.85 122.94,42.89 C121.89,44.93 121.16,46.59 120.73,47.9 C122.04,46.91 123.73,45.71 125.8,44.34 C127.87,42.97 129.21,42.1 129.82,41.72 L129.75,41.76 Z M103.34,78.25 C103.31,78.4 103.34,78.42 103.43,78.31 C104.3,77.52 106.05,74.67 108.68,69.77 C110.81,65.78 112.76,61.7 114.54,57.53 C111.89,61.11 109.56,64.93 107.52,68.98 C105.48,73.03 104.11,76.12 103.38,78.25 L103.34,78.25 L103.34,78.25 Z M114.01,44.44 C114.54,44.12 115.09,43.71 115.67,43.22 C116.25,42.72 116.72,42.29 117.07,41.91 C117.42,41.53 117.91,41.04 118.53,40.39 C119.15,39.74 119.58,39.28 119.84,38.99 C118.85,38.99 117.86,39.28 116.9,39.83 C115.94,40.38 115.18,41.05 114.63,41.84 C113.9,42.83 113.46,43.79 113.32,44.76 C113.64,44.61 113.87,44.47 114.02,44.35 L114.02,44.44 L114.01,44.44 Z" id="Shape"></path>
                </g>
                <g id="Group" transform="translate(0.000000, 62.000000)" fill="#1F0204">
                    <path d="M0.69,1.13 L4.22,1.13 C4.74,1.13 5.2,1.2 5.61,1.35 C6.02,1.49 6.36,1.7 6.65,1.96 C6.94,2.22 7.15,2.54 7.3,2.91 C7.45,3.28 7.53,3.68 7.53,4.13 L7.53,4.15 C7.53,4.65 7.44,5.09 7.26,5.47 C7.08,5.85 6.83,6.17 6.51,6.42 C6.19,6.68 5.82,6.87 5.4,6.99 C4.98,7.12 4.52,7.18 4.03,7.18 L2.58,7.18 L2.58,9.77 L0.68,9.77 L0.68,1.13 L0.69,1.13 Z M4.1,5.49 C4.58,5.49 4.95,5.36 5.21,5.11 C5.47,4.86 5.61,4.55 5.61,4.18 L5.61,4.15 C5.61,3.72 5.47,3.4 5.2,3.18 C4.92,2.96 4.55,2.85 4.07,2.85 L2.6,2.85 L2.6,5.48 L4.1,5.48 L4.1,5.49 Z" id="Shape"></path>
                    <path d="M24.75,9.92 C24.08,9.92 23.47,9.8 22.91,9.57 C22.35,9.34 21.87,9.02 21.46,8.62 C21.05,8.22 20.73,7.75 20.51,7.21 C20.28,6.67 20.17,6.09 20.17,5.47 L20.17,5.44 C20.17,4.82 20.29,4.24 20.52,3.7 C20.75,3.16 21.07,2.69 21.48,2.28 C21.89,1.87 22.37,1.55 22.94,1.32 C23.5,1.09 24.12,0.97 24.79,0.97 C25.46,0.97 26.07,1.09 26.63,1.32 C27.19,1.56 27.67,1.87 28.08,2.27 C28.49,2.67 28.8,3.14 29.03,3.68 C29.26,4.22 29.37,4.8 29.37,5.42 L29.37,5.44 C29.37,6.06 29.25,6.64 29.02,7.18 C28.79,7.72 28.47,8.19 28.06,8.6 C27.65,9.01 27.17,9.33 26.6,9.56 C26.04,9.81 25.42,9.92 24.75,9.92 Z M24.78,8.17 C25.16,8.17 25.51,8.1 25.83,7.96 C26.15,7.82 26.42,7.63 26.65,7.38 C26.88,7.13 27.05,6.85 27.18,6.52 C27.31,6.19 27.37,5.85 27.37,5.48 L27.37,5.45 C27.37,5.08 27.31,4.73 27.18,4.4 C27.05,4.07 26.87,3.78 26.64,3.53 C26.41,3.28 26.13,3.09 25.81,2.94 C25.49,2.8 25.14,2.72 24.76,2.72 C24.37,2.72 24.02,2.79 23.7,2.93 C23.38,3.07 23.11,3.26 22.89,3.51 C22.66,3.76 22.49,4.04 22.36,4.37 C22.23,4.7 22.17,5.04 22.17,5.41 L22.17,5.43 C22.17,5.8 22.23,6.15 22.36,6.48 C22.49,6.81 22.67,7.1 22.9,7.34 C23.13,7.58 23.41,7.78 23.73,7.93 C24.04,8.1 24.39,8.17 24.78,8.17 Z" id="Shape"></path>
                    <path d="M42.67,1.13 L46.04,1.13 C46.71,1.13 47.33,1.24 47.9,1.46 C48.46,1.68 48.95,1.98 49.36,2.37 C49.77,2.76 50.08,3.21 50.3,3.74 C50.52,4.26 50.63,4.83 50.63,5.44 L50.63,5.46 C50.63,6.07 50.52,6.64 50.3,7.17 C50.08,7.7 49.76,8.15 49.36,8.54 C48.95,8.93 48.47,9.23 47.9,9.45 C47.34,9.67 46.72,9.78 46.04,9.78 L42.67,9.78 L42.67,1.13 Z M44.57,2.86 L44.57,8.05 L46.04,8.05 C46.43,8.05 46.78,7.99 47.1,7.87 C47.42,7.75 47.7,7.57 47.92,7.34 C48.14,7.11 48.32,6.84 48.45,6.53 C48.58,6.22 48.64,5.87 48.64,5.48 L48.64,5.46 C48.64,5.08 48.58,4.73 48.45,4.42 C48.32,4.1 48.15,3.83 47.92,3.6 C47.69,3.37 47.42,3.19 47.1,3.06 C46.78,2.93 46.42,2.87 46.04,2.87 L44.57,2.87 L44.57,2.86 Z" id="Shape"></path>
                    <path d="M67.99,9.92 C67.36,9.92 66.77,9.8 66.22,9.57 C65.67,9.34 65.21,9.02 64.81,8.62 C64.41,8.22 64.11,7.75 63.88,7.2 C63.66,6.66 63.55,6.08 63.55,5.46 L63.55,5.43 C63.55,4.81 63.66,4.23 63.88,3.69 C64.1,3.15 64.41,2.68 64.81,2.27 C65.21,1.86 65.68,1.54 66.23,1.31 C66.78,1.08 67.39,0.96 68.06,0.96 C68.46,0.96 68.83,0.99 69.17,1.06 C69.5,1.13 69.81,1.22 70.08,1.33 C70.35,1.44 70.6,1.59 70.83,1.75 C71.06,1.92 71.27,2.1 71.47,2.29 L70.26,3.69 C69.92,3.39 69.58,3.15 69.23,2.97 C68.88,2.79 68.49,2.71 68.05,2.71 C67.69,2.71 67.35,2.78 67.04,2.92 C66.73,3.06 66.47,3.25 66.24,3.5 C66.02,3.75 65.84,4.03 65.72,4.36 C65.6,4.69 65.53,5.03 65.53,5.4 L65.53,5.42 C65.53,5.79 65.59,6.14 65.72,6.47 C65.84,6.8 66.01,7.09 66.23,7.33 C66.45,7.57 66.71,7.77 67.02,7.92 C67.33,8.06 67.67,8.14 68.04,8.14 C68.53,8.14 68.95,8.05 69.29,7.87 C69.63,7.69 69.97,7.44 70.31,7.13 L71.52,8.35 C71.3,8.59 71.07,8.8 70.83,8.99 C70.59,9.18 70.33,9.34 70.05,9.48 C69.77,9.62 69.45,9.72 69.12,9.79 C68.79,9.89 68.41,9.92 67.99,9.92 Z" id="Path"></path>
                    <path d="M87.64,1.06 L89.39,1.06 L93.1,9.77 L91.11,9.77 L90.32,7.83 L86.66,7.83 L85.87,9.77 L83.93,9.77 L87.64,1.06 Z M89.64,6.15 L88.49,3.35 L87.34,6.15 L89.64,6.15 Z" id="Shape"></path>
                    <path d="M109.12,9.9 C108.46,9.9 107.81,9.79 107.18,9.56 C106.55,9.33 105.97,8.98 105.45,8.52 L106.58,7.17 C106.97,7.49 107.38,7.75 107.8,7.94 C108.22,8.13 108.67,8.22 109.17,8.22 C109.56,8.22 109.87,8.15 110.09,8 C110.31,7.86 110.42,7.66 110.42,7.4 L110.42,7.38 C110.42,7.26 110.4,7.15 110.35,7.05 C110.3,6.96 110.22,6.87 110.09,6.78 C109.96,6.7 109.79,6.61 109.56,6.53 C109.33,6.45 109.04,6.36 108.68,6.27 C108.24,6.16 107.85,6.04 107.49,5.91 C107.13,5.78 106.84,5.62 106.59,5.42 C106.34,5.23 106.15,4.99 106.01,4.7 C105.87,4.41 105.81,4.05 105.81,3.63 L105.81,3.6 C105.81,3.21 105.88,2.85 106.03,2.53 C106.18,2.21 106.38,1.94 106.65,1.71 C106.92,1.48 107.23,1.3 107.6,1.18 C107.97,1.06 108.38,0.99 108.82,0.99 C109.45,0.99 110.04,1.08 110.57,1.27 C111.1,1.46 111.59,1.73 112.03,2.09 L111.04,3.52 C110.65,3.26 110.27,3.05 109.9,2.9 C109.53,2.75 109.16,2.67 108.79,2.67 C108.42,2.67 108.14,2.74 107.96,2.89 C107.78,3.04 107.68,3.21 107.68,3.43 L107.68,3.46 C107.68,3.6 107.71,3.72 107.76,3.82 C107.81,3.92 107.91,4.02 108.05,4.1 C108.19,4.18 108.38,4.26 108.62,4.34 C108.86,4.42 109.17,4.5 109.54,4.6 C109.98,4.72 110.37,4.85 110.71,4.99 C111.05,5.13 111.34,5.31 111.58,5.51 C111.81,5.71 111.99,5.95 112.11,6.22 C112.23,6.49 112.29,6.82 112.29,7.2 L112.29,7.22 C112.29,7.65 112.21,8.03 112.06,8.36 C111.9,8.69 111.69,8.97 111.41,9.2 C111.13,9.43 110.8,9.6 110.41,9.72 C110.02,9.84 109.59,9.9 109.12,9.9 Z" id="Path"></path>
                    <polygon id="Path" points="127.39 2.88 124.76 2.88 124.76 1.13 131.93 1.13 131.93 2.88 129.3 2.88 129.3 9.77 127.4 9.77 127.4 2.88"></polygon>
                </g>
                <g id="Group" transform="translate(142.000000, 15.000000)">
                    <path d="M7.92,18.11 L7.92,11.88 C7.92,9.77 9.63,8.06 11.74,8.06 L11.74,4.15 C7.48,4.15 4.01,7.62 4.01,11.89 L4.01,18.12 C4.01,20.23 2.3,21.94 0.19,21.94 L0.19,25.85 C2.3,25.85 4.01,27.56 4.01,29.67 L4.01,35.9 C4.01,40.17 7.48,43.64 11.74,43.64 L11.74,39.73 C9.63,39.73 7.92,38.02 7.92,35.91 L7.92,29.68 C7.92,27.38 6.91,25.32 5.31,23.9 C6.91,22.47 7.92,20.41 7.92,18.11 Z" id="Path" fill="#3D292B"></path>
                    <path d="M72.31,18.11 L72.31,11.88 C72.31,7.61 68.84,4.14 64.57,4.14 L64.57,8.05 C66.68,8.05 68.39,9.76 68.39,11.87 L68.39,18.1 C68.39,20.4 69.4,22.46 71,23.88 C69.4,25.3 68.39,27.36 68.39,29.66 L68.39,35.89 C68.39,38 66.68,39.71 64.57,39.71 L64.57,43.62 C68.84,43.62 72.31,40.15 72.31,35.88 L72.31,29.65 C72.31,27.54 74.02,25.83 76.13,25.83 L76.13,21.92 C74.03,21.93 72.31,20.22 72.31,18.11 Z" id="Path" fill="#3D292B"></path>
                    <g transform="translate(13.000000, 0.000000)">
                        <circle id="Oval" fill="#3D292B" cx="25.3" cy="23.47" r="14.29"></circle>
                        <circle id="Oval" fill="#3D292B" cx="25.25" cy="9.63" r="5.79"></circle>
                        <g transform="translate(19.000000, 0.000000)" fill="#3D292B" id="Path">
                            <g>
                                <line x1="4.5" y1="4.93" x2="1" y2="1.43"></line>
                                <path d="M4.5,5.36 C4.39,5.36 4.28,5.32 4.19,5.23 L0.69,1.73 C0.52,1.56 0.52,1.29 0.69,1.12 C0.86,0.95 1.13,0.95 1.3,1.12 L4.8,4.62 C4.97,4.79 4.97,5.06 4.8,5.23 C4.72,5.32 4.61,5.36 4.5,5.36 Z"></path>
                            </g>
                            <g transform="translate(7.000000, 0.000000)">
                                <line x1="0.99" y1="4.93" x2="4.49" y2="1.43"></line>
                                <path d="M0.99,5.36 C0.88,5.36 0.77,5.32 0.68,5.23 C0.51,5.06 0.51,4.79 0.68,4.62 L4.18,1.12 C4.35,0.95 4.62,0.95 4.79,1.12 C4.96,1.29 4.96,1.56 4.79,1.73 L1.29,5.23 C1.21,5.32 1.1,5.36 0.99,5.36 Z"></path>
                            </g>
                        </g>
                        <g transform="translate(0.000000, 7.000000)" fill="#FFFFFF" id="Path">
                            <path d="M12.39,35.15 C3.03,31.58 -1.67,21.1 1.89,11.74 C5.45,2.38 15.94,-2.32 25.3,1.24 L12.39,35.15 Z"></path>
                            <path d="M38.21,35.15 C47.57,31.58 52.27,21.1 48.71,11.74 C45.14,2.38 34.66,-2.32 25.3,1.24 L38.21,35.15 Z"></path>
                        </g>
                        <g transform="translate(2.000000, 24.000000)" fill="#3D292B">
                            <circle id="Oval" cx="3.46" cy="2.98" r="2.38"></circle>
                            <path d="M3.46,5.8 C1.91,5.8 0.64,4.54 0.64,2.98 C0.64,1.42 1.9,0.16 3.46,0.16 C5.02,0.16 6.28,1.42 6.28,2.98 C6.28,4.54 5.01,5.8 3.46,5.8 Z M3.46,1.03 C2.38,1.03 1.51,1.9 1.51,2.98 C1.51,4.06 2.38,4.93 3.46,4.93 C4.54,4.93 5.41,4.06 5.41,2.98 C5.41,1.9 4.54,1.03 3.46,1.03 Z" id="Shape"></path>
                        </g>
                        <g transform="translate(8.000000, 32.000000)" fill="#3D292B">
                            <circle id="Oval" cx="2.16" cy="2.29" r="1.45"></circle>
                            <path d="M2.16,4.17 C1.12,4.17 0.28,3.33 0.28,2.29 C0.28,1.25 1.12,0.41 2.16,0.41 C3.2,0.41 4.04,1.25 4.04,2.29 C4.04,3.32 3.2,4.17 2.16,4.17 Z M2.16,1.27 C1.6,1.27 1.15,1.73 1.15,2.28 C1.15,2.84 1.6,3.29 2.16,3.29 C2.72,3.29 3.17,2.83 3.17,2.28 C3.18,1.73 2.72,1.27 2.16,1.27 Z" id="Shape"></path>
                        </g>
                        <g transform="translate(9.000000, 17.000000)" fill="#3D292B">
                            <circle id="Oval" cx="4.27" cy="4.34" r="3.63"></circle>
                            <path d="M4.27,8.4 C2.03,8.4 0.21,6.58 0.21,4.34 C0.21,2.1 2.03,0.28 4.27,0.28 C6.51,0.28 8.33,2.1 8.33,4.34 C8.33,6.58 6.51,8.4 4.27,8.4 Z M4.27,1.14 C2.51,1.14 1.07,2.57 1.07,4.33 C1.07,6.09 2.5,7.53 4.27,7.53 C6.03,7.53 7.46,6.1 7.46,4.33 C7.46,2.58 6.03,1.14 4.27,1.14 Z" id="Shape"></path>
                        </g>
                        <g transform="translate(42.000000, 24.000000)" fill="#3D292B">
                            <circle id="Oval" cx="3.04" cy="2.98" r="2.38"></circle>
                            <path d="M3.04,5.8 C1.49,5.8 0.22,4.54 0.22,2.98 C0.22,1.42 1.48,0.16 3.04,0.16 C4.59,0.16 5.86,1.42 5.86,2.98 C5.86,4.54 4.6,5.8 3.04,5.8 Z M3.04,1.03 C1.96,1.03 1.09,1.9 1.09,2.98 C1.09,4.06 1.96,4.93 3.04,4.93 C4.12,4.93 4.99,4.06 4.99,2.98 C4.99,1.9 4.12,1.03 3.04,1.03 Z" id="Shape"></path>
                        </g>
                        <g transform="translate(38.000000, 32.000000)" fill="#3D292B">
                            <circle id="Oval" cx="2.34" cy="2.29" r="1.45"></circle>
                            <path d="M2.34,4.17 C1.3,4.17 0.46,3.33 0.46,2.29 C0.46,1.25 1.3,0.41 2.34,0.41 C3.38,0.41 4.22,1.25 4.22,2.29 C4.22,3.32 3.38,4.17 2.34,4.17 Z M2.34,1.27 C1.78,1.27 1.33,1.73 1.33,2.28 C1.33,2.84 1.78,3.29 2.34,3.29 C2.9,3.29 3.35,2.83 3.35,2.28 C3.36,1.73 2.9,1.27 2.34,1.27 Z" id="Shape"></path>
                        </g>
                        <g transform="translate(33.000000, 17.000000)" fill="#3D292B">
                            <circle id="Oval" cx="4.24" cy="4.34" r="3.63"></circle>
                            <path d="M4.24,8.4 C2,8.4 0.18,6.58 0.18,4.34 C0.18,2.1 2,0.28 4.24,0.28 C6.48,0.28 8.3,2.1 8.3,4.34 C8.3,6.58 6.48,8.4 4.24,8.4 Z M4.24,1.14 C2.48,1.14 1.05,2.57 1.05,4.33 C1.05,6.09 2.48,7.53 4.24,7.53 C6,7.53 7.44,6.1 7.44,4.33 C7.43,2.58 6,1.14 4.24,1.14 Z" id="Shape"></path>
                        </g>
                    </g>
                </g>
            </g>
        </g>
    </g>
</svg>