<?xml version="1.0" encoding="UTF-8"?>
<svg width="48px" height="48px" viewBox="0 0 48 48" version="1.1" xmlns="http://www.w3.org/2000/svg" xmlns:xlink="http://www.w3.org/1999/xlink">
    <!-- Generator: Sketch 61.2 (89653) - https://sketch.com -->
    <title>rss</title>
    <desc>Created with Sketch.</desc>
    <g id="Home-Page" stroke="none" stroke-width="1" fill="none" fill-rule="evenodd">
        <g id="Ladybug-Podcast-Home-Page-Copy" transform="translate(-655.000000, -1517.000000)">
            <g id="Group-12" transform="translate(335.000000, 1517.000000)">
                <g id="rss" transform="translate(320.000000, 0.000000)">
                    <circle id="Oval-Copy-8" fill="#FFE8E8" cx="24" cy="24" r="24"></circle>
                    <path d="M21.5755813,30.7121397 C21.5755813,32.5279532 20.1035826,33.9999487 18.287765,33.9999487 C16.4719474,33.9999487 15,32.5279532 15,30.7121397 C15,28.8963261 16.4719987,27.4243307 18.2878163,27.4243307 C20.1036339,27.4243307 21.5755813,28.8963775 21.5755813,30.7121397 L21.5755813,30.7121397 Z M30.5938324,33.1379134 C30.1649444,25.2008845 23.8075548,18.8355002 15.8620372,18.4061511 C15.3930532,18.3807896 15,18.7576188 15,19.2272691 L15,21.6950895 C15,22.1271083 15.3331917,22.4894085 15.7642873,22.5174397 C21.5056573,22.8913939 26.1077582,27.4820359 26.4824833,33.2356117 C26.5105659,33.6667064 26.8728669,33.9998973 27.3048352,33.9998973 L29.7726612,33.9998973 C30.2423639,33.9998973 30.619194,33.6068963 30.5938324,33.1379134 Z M37.9994665,33.1526991 C37.568525,21.1485845 27.9100222,11.433579 15.8472515,11.0005335 C15.3836581,10.9838996 15,11.3584185 15,11.8222675 L15,14.2900366 C15,14.7328366 15.3509037,15.0932373 15.7933453,15.1114113 C25.60833,15.5138587 33.4862339,23.3932338 33.8886308,33.2066565 C33.9067536,33.6490971 34.2671551,34 34.7100074,34 L37.177782,34 C37.6415807,34 38.0161005,33.6162914 37.9994665,33.1526991 L37.9994665,33.1526991 Z" id="Shape" fill="#EF5757" fill-rule="nonzero"></path>
                </g>
            </g>
        </g>
    </g>
</svg>