<?xml version="1.0" encoding="UTF-8"?>
<svg width="48px" height="48px" viewBox="0 0 48 48" version="1.1" xmlns="http://www.w3.org/2000/svg" xmlns:xlink="http://www.w3.org/1999/xlink">
    <!-- Generator: Sketch 61.2 (89653) - https://sketch.com -->
    <title>spotify</title>
    <desc>Created with Sketch.</desc>
    <g id="Home-Page" stroke="none" stroke-width="1" fill="none" fill-rule="evenodd">
        <g id="Ladybug-Podcast-Home-Page-Copy" transform="translate(-527.000000, -1517.000000)">
            <g id="Group-12" transform="translate(335.000000, 1517.000000)">
                <g id="spotify" transform="translate(192.000000, 0.000000)">
                    <circle id="Oval-Copy-6" fill="#FFE8E8" cx="24" cy="24" r="24"></circle>
                    <path d="M24,10.3027295 C15.8471464,10.3027295 9.23076923,16.9191067 9.23076923,25.0719603 C9.23076923,33.2248139 15.8471464,39.8411911 24,39.8411911 C32.1528536,39.8411911 38.7692308,33.2248139 38.7692308,25.0719603 C38.7692308,16.9191067 32.1528536,10.3027295 24,10.3027295 Z M29.9970223,32.0337469 C29.7468983,32.0337469 29.5920596,31.9563275 29.3598015,31.8193548 C25.6436725,29.5801489 21.3200993,29.4848635 17.0501241,30.3602978 C16.817866,30.4198511 16.5141439,30.5151365 16.3414392,30.5151365 C15.7637717,30.5151365 15.4004963,30.0565757 15.4004963,29.5741935 C15.4004963,28.960794 15.7637717,28.6689826 16.2104218,28.5736973 C21.0878412,27.4957816 26.0724566,27.591067 30.3245658,30.133995 C30.6878412,30.3662531 30.9022333,30.5746898 30.9022333,31.1166253 C30.9022333,31.6585608 30.4794045,32.0337469 29.9970223,32.0337469 L29.9970223,32.0337469 Z M31.5990074,28.1270471 C31.28933,28.1270471 31.0808933,27.9900744 30.8665012,27.8769231 C27.1444169,25.6734491 21.5940447,24.7861042 16.657072,26.1260546 C16.3712159,26.2034739 16.2163772,26.2808933 15.9483871,26.2808933 C15.3111663,26.2808933 14.7930521,25.7627792 14.7930521,25.1255583 C14.7930521,24.4883375 15.1027295,24.0655087 15.716129,23.892804 C17.3717122,23.4282878 19.0630273,23.0828784 21.5404467,23.0828784 C25.4054591,23.0828784 29.1394541,24.0416873 32.0813896,25.7925558 C32.5637717,26.0784119 32.7543424,26.4476427 32.7543424,26.9657568 C32.7483871,27.608933 32.248139,28.1270471 31.5990074,28.1270471 L31.5990074,28.1270471 Z M33.4451613,23.5890819 C33.1354839,23.5890819 32.9449132,23.5116625 32.6769231,23.3568238 C28.4367246,20.8258065 20.8555831,20.2183623 15.9483871,21.5880893 C15.733995,21.6476427 15.466005,21.742928 15.1801489,21.742928 C14.3940447,21.742928 13.7925558,21.1295285 13.7925558,20.337469 C13.7925558,19.5275434 14.292804,19.0689826 14.8287841,18.9141439 C16.925062,18.3007444 19.271464,18.008933 21.8263027,18.008933 C26.1736973,18.008933 30.7295285,18.9141439 34.0585608,20.8555831 C34.5230769,21.1235732 34.826799,21.492804 34.826799,22.2014888 C34.826799,23.0114144 34.1717122,23.5890819 33.4451613,23.5890819 L33.4451613,23.5890819 Z" id="Shape" fill="#EF5757" fill-rule="nonzero"></path>
                </g>
            </g>
        </g>
    </g>
</svg>