<?xml version="1.0" encoding="UTF-8"?>
<svg width="48px" height="48px" viewBox="0 0 48 48" version="1.1" xmlns="http://www.w3.org/2000/svg" xmlns:xlink="http://www.w3.org/1999/xlink">
    <!-- Generator: Sketch 61.2 (89653) - https://sketch.com -->
    <title>twitter</title>
    <desc>Created with Sketch.</desc>
    <g id="Home-Page" stroke="none" stroke-width="1" fill="none" fill-rule="evenodd">
        <g id="Ladybug-Podcast-Home-Page-Copy" transform="translate(-335.000000, -1517.000000)">
            <g id="Group-12" transform="translate(335.000000, 1517.000000)">
                <g id="twitter">
                    <circle id="Oval" fill="#FFE8E8" cx="24" cy="24" r="24"></circle>
                    <path d="M37.121895,18.7320104 C37.1396685,18.9835609 37.1396685,19.2351667 37.1396685,19.4867172 C37.1396685,27.1593389 31.3655756,36 20.8122141,36 C17.5609202,36 14.5406271,35.0476148 12,33.3945608 C12.4619471,33.4484329 12.906066,33.4664087 13.3857867,33.4664087 C16.0684925,33.4664087 18.5380802,32.5500304 20.5101739,30.9867448 C17.9873203,30.9328174 15.8730933,29.2617324 15.1446529,26.9617158 C15.5000137,27.0155878 15.8553197,27.0515394 16.228454,27.0515394 C16.743667,27.0515394 17.2589346,26.9796363 17.7386005,26.8539163 C15.1091606,26.3148084 13.1370123,23.9788956 13.1370123,21.1578022 L13.1370123,21.0859544 C13.9009449,21.5172075 14.7893468,21.7867337 15.7309052,21.82263 C14.1852117,20.7804212 13.1725593,19.0015367 13.1725593,16.9890221 C13.1725593,15.910917 13.4567713,14.9226356 13.9542654,14.0601293 C16.7791593,17.5820021 21.0253868,19.8819634 25.7867726,20.1335692 C25.6979598,19.7023161 25.6446392,19.2531425 25.6446392,18.8039136 C25.6446392,15.6054392 28.2030399,13 31.3832398,13 C33.0355197,13 34.5278927,13.7007794 35.5761468,14.8328119 C36.8730659,14.5812614 38.1167192,14.0960809 39.2182938,13.4312531 C38.791839,14.7789398 37.885773,15.9109723 36.6954402,16.6296722 C37.8502807,16.5039523 38.9695741,16.1804433 40,15.7312697 C39.2184032,16.8812227 38.2411884,17.9054004 37.121895,18.7320104 Z" id="Path" fill="#EF5757" fill-rule="nonzero"></path>
                </g>
            </g>
        </g>
    </g>
</svg>